<?xml version="1.0" encoding="UTF-8"?>
<!-- Generator: visioncortex VTracer 0.6.4 -->
<svg version="1.1" xmlns="http://www.w3.org/2000/svg" width="1024" height="1024">
<path d="M0 0 C337.92 0 675.84 0 1024 0 C1024 337.92 1024 675.84 1024 1024 C686.08 1024 348.16 1024 0 1024 C0 686.08 0 348.16 0 0 Z " fill="#F7FAFB" transform="translate(0,0)"/>
<path d="M0 0 C0.833 -0.028 1.667 -0.056 2.526 -0.085 C5.273 -0.168 8.019 -0.212 10.768 -0.249 C11.713 -0.265 12.659 -0.282 13.633 -0.299 C18.644 -0.386 23.654 -0.442 28.666 -0.474 C32.787 -0.504 36.901 -0.588 41.02 -0.72 C77.01 -1.852 77.01 -1.852 85.603 4.471 C89.13 7.83 91.731 11.481 94.143 15.695 C96.409 19.287 99.465 22.025 102.557 24.9 C107.101 29.358 111.393 33.97 115.495 38.837 C115.825 39.167 116.155 39.497 116.495 39.837 C116.582 41.691 116.602 43.548 116.592 45.404 C116.589 46.529 116.586 47.653 116.583 48.812 C116.574 49.996 116.566 51.18 116.557 52.4 C116.553 53.588 116.548 54.776 116.543 56 C116.532 58.946 116.515 61.891 116.495 64.837 C117.369 64.796 118.244 64.754 119.145 64.711 C129.952 64.28 138.577 65.931 146.932 73.087 C150.874 76.934 154.076 80.88 156.495 85.837 C156.858 86.562 157.222 87.286 157.596 88.033 C160.478 97.029 159.487 108.903 155.756 117.451 C149.483 129.318 142.095 136.797 129.495 141.837 C127.06 142.458 125.013 142.723 122.495 142.837 C122.495 139.207 122.495 135.577 122.495 131.837 C123.959 131.507 125.423 131.177 126.932 130.837 C134.058 128.667 139.167 124.542 143.131 118.232 C147.586 109.591 148.447 101.49 147.495 91.837 C146.434 89.283 145.301 87.41 143.588 85.255 C142.495 83.837 142.495 83.837 142.495 81.837 C141.172 81.15 139.835 80.49 138.495 79.837 C137.567 79.342 136.638 78.847 135.682 78.337 C129.855 76.085 129.855 76.085 116.495 74.837 C116.495 91.007 116.495 107.177 116.495 123.837 C114.185 121.857 111.875 119.877 109.495 117.837 C108.505 117.177 107.515 116.517 106.495 115.837 C106.134 113.015 106.134 113.015 106.154 109.368 C106.154 108.705 106.153 108.041 106.153 107.357 C106.155 105.16 106.178 102.964 106.202 100.767 C106.207 99.245 106.212 97.724 106.215 96.202 C106.226 92.194 106.255 88.186 106.289 84.178 C106.319 80.089 106.333 76 106.348 71.912 C106.38 63.887 106.432 55.862 106.495 47.837 C105.673 47.858 104.851 47.879 104.004 47.901 C100.272 47.984 96.54 48.036 92.807 48.087 C91.514 48.121 90.22 48.154 88.887 48.189 C87.64 48.202 86.393 48.215 85.108 48.228 C83.961 48.249 82.814 48.27 81.633 48.292 C77.83 47.741 76.213 46.495 73.495 43.837 C68.573 33.994 72.495 21.842 72.495 10.837 C47.085 10.837 21.675 10.837 -4.505 10.837 C-4.505 61.327 -4.505 111.817 -4.505 163.837 C15.295 163.837 35.095 163.837 55.495 163.837 C55.495 167.137 55.495 170.437 55.495 173.837 C47.236 173.93 38.979 174.001 30.72 174.045 C26.885 174.066 23.05 174.094 19.216 174.139 C15.513 174.183 11.811 174.207 8.109 174.217 C6.698 174.224 5.287 174.239 3.876 174.26 C1.896 174.289 -0.083 174.291 -2.063 174.292 C-3.752 174.305 -3.752 174.305 -5.474 174.318 C-9.187 173.729 -10.835 172.43 -13.505 169.837 C-14.81 167.228 -14.618 165.31 -14.603 162.392 C-14.6 161.316 -14.597 160.239 -14.593 159.13 C-14.581 157.438 -14.581 157.438 -14.568 155.712 C-14.563 154.577 -14.559 153.441 -14.554 152.271 C-14.542 149.46 -14.526 146.649 -14.505 143.837 C-15.059 143.858 -15.612 143.879 -16.183 143.901 C-36.943 144.584 -36.943 144.584 -44.505 139.837 C-45.29 139.351 -46.075 138.865 -46.884 138.365 C-55.119 132.626 -60.621 123.713 -62.505 113.837 C-63.374 105.326 -62.562 98.401 -58.505 90.837 C-58.166 90.202 -57.827 89.566 -57.478 88.912 C-54.508 84.145 -50.416 81.58 -45.791 78.521 C-42.882 76.378 -41.41 73.885 -39.505 70.837 C-34.329 65.1 -28.485 62.215 -21.361 59.392 C-17.855 57.483 -17.105 56.496 -15.505 52.837 C-15.102 49.304 -15.16 45.796 -15.205 42.244 C-15.197 40.141 -15.188 38.038 -15.179 35.935 C-15.181 32.63 -15.193 29.325 -15.22 26.021 C-15.241 22.823 -15.225 19.628 -15.205 16.431 C-15.223 15.445 -15.242 14.458 -15.261 13.442 C-15.251 12.517 -15.241 11.593 -15.231 10.64 C-15.235 9.831 -15.24 9.023 -15.245 8.189 C-12.961 0.925 -6.586 0.074 0 0 Z " fill="#06306C" transform="translate(461.50537109375,306.16259765625)"/>
<path d="M0 0 C8.745 -0.082 17.49 -0.165 26.5 -0.25 C29.226 -0.286 31.951 -0.323 34.76 -0.36 C66.905 -0.611 66.905 -0.611 79 9 C80.052 9.743 81.104 10.485 82.188 11.25 C89.499 18.399 93.08 28.287 93.438 38.375 C93.125 50.033 88.429 58.807 80.125 66.75 C66.181 76.79 51.585 76.303 35 76 C35 85.57 35 95.14 35 105 C23.45 105 11.9 105 0 105 C0 70.35 0 35.7 0 0 Z " fill="#1D84CE" transform="translate(225,501)"/>
<path d="M0 0 C11.973 -0.155 11.973 -0.155 24.188 -0.312 C26.679 -0.358 29.171 -0.404 31.739 -0.45 C45.147 -0.593 58.246 -0.678 68.57 9.262 C75.987 18.28 76.855 27.622 76 39 C74.182 47.632 70.109 54.634 62.676 59.531 C53.315 64.586 43.849 65.305 33.375 65.125 C29.951 65.084 26.527 65.043 23 65 C23 74.57 23 84.14 23 94 C15.41 94 7.82 94 0 94 C0 62.98 0 31.96 0 0 Z " fill="#023676" transform="translate(334,511)"/>
<path d="M0 0 C5.575 3.956 9.307 8.51 12.555 14.492 C12.968 15.253 13.382 16.013 13.809 16.797 C18.025 25.76 17.755 35.416 14.992 44.805 C11.267 54.621 4.491 62.183 -5 66.711 C-16.47 71.476 -27.903 72.185 -39.656 67.75 C-50.758 62.743 -57.104 55.268 -61.527 43.973 C-63.947 34.799 -63.886 24.266 -59.707 15.629 C-54.084 6.106 -46.517 -1.888 -35.601 -5.041 C-23.74 -7.612 -10.306 -6.355 0 0 Z " fill="#022A6C" transform="translate(479.4453125,536.5078125)"/>
<path d="M0 0 C8.25 0 16.5 0 25 0 C25.987 2.902 26.975 5.803 27.992 8.793 C28.952 11.61 29.912 14.426 30.872 17.242 C31.537 19.197 32.203 21.151 32.868 23.106 C33.825 25.919 34.783 28.731 35.742 31.543 C36.038 32.414 36.334 33.285 36.639 34.182 C37.999 38.165 39.379 42.114 41 46 C41.206 45.317 41.411 44.634 41.623 43.931 C46.087 29.155 50.795 14.531 56 0 C64.25 0 72.5 0 81 0 C76.397 12.494 71.45 24.816 66.375 37.125 C64.773 41.017 63.173 44.911 61.574 48.805 C61.181 49.762 60.788 50.719 60.384 51.705 C57.993 57.54 55.641 63.389 53.332 69.258 C53.058 69.953 52.784 70.648 52.501 71.364 C51.255 74.527 50.017 77.692 48.792 80.864 C41.752 98.784 41.752 98.784 33.105 102.902 C25.775 105.768 18.104 106.575 10.672 103.723 C6.598 101.71 2.78 99.52 -1 97 C0.427 93.21 2.162 89.729 4.125 86.188 C4.664 85.212 5.203 84.236 5.758 83.23 C6.168 82.494 6.578 81.758 7 81 C12.875 82.875 12.875 82.875 14 84 C16.831 84.502 16.831 84.502 20 84 C23.888 80.926 26.229 77.623 28 73 C27.471 69.805 26.236 66.863 25.059 63.855 C24.441 62.278 24.441 62.278 23.812 60.669 C23.358 59.52 22.905 58.371 22.438 57.188 C21.967 55.989 21.496 54.791 21.01 53.557 C17.974 45.86 14.861 38.195 11.711 30.543 C11.347 29.659 10.983 28.774 10.608 27.863 C8.789 23.448 6.964 19.036 5.133 14.626 C4.459 12.998 3.786 11.37 3.113 9.742 C2.798 8.988 2.483 8.234 2.158 7.457 C0 2.226 0 2.226 0 0 Z " fill="#03296C" transform="translate(724,532)"/>
<path d="M0 0 C1.357 0.968 2.698 1.96 4 3 C2.236 6.751 0.061 10.235 -2.125 13.75 C-2.498 14.352 -2.87 14.954 -3.254 15.574 C-4.168 17.05 -5.084 18.525 -6 20 C-7.373 19.269 -7.373 19.269 -8.773 18.523 C-12.537 16.747 -14.883 16.543 -19 17 C-21.245 18.118 -21.245 18.118 -23 20 C-23.695 22.494 -23.695 22.494 -23.75 25.188 C-23.832 26.776 -23.915 28.364 -24 30 C-17.73 30 -11.46 30 -5 30 C-5 35.28 -5 40.56 -5 46 C-11.6 46 -18.2 46 -25 46 C-25 64.15 -25 82.3 -25 101 C-32.59 101 -40.18 101 -48 101 C-48 82.85 -48 64.7 -48 46 C-50.64 46 -53.28 46 -56 46 C-56 41.05 -56 36.1 -56 31 C-53.36 31 -50.72 31 -48 31 C-48.046 30.178 -48.093 29.355 -48.141 28.508 C-48.446 19.056 -47.155 11.823 -41.375 4.188 C-30.69 -6.946 -13.137 -6.977 0 0 Z " fill="#023170" transform="translate(723,504)"/>
<path d="M0 0 C1.313 0.009 1.313 0.009 2.653 0.019 C13.183 0.27 22.137 3.4 31.312 8.438 C29.947 11.98 28.403 15.364 26.688 18.75 C26.018 20.075 26.018 20.075 25.336 21.426 C24.998 22.09 24.66 22.754 24.312 23.438 C20.165 22.761 16.529 21.41 12.625 19.875 C6.942 17.815 1.362 16.011 -4.688 17.438 C-6.594 18.609 -6.594 18.609 -7.688 20.438 C-7.866 22.538 -7.866 22.538 -6.688 24.438 C-4.337 25.893 -4.337 25.893 -1.375 26.938 C-0.291 27.36 0.793 27.783 1.91 28.219 C5.109 29.365 8.323 30.414 11.562 31.438 C19.616 34.069 25.349 37.519 30.312 44.438 C32.19 50.07 32.243 56.144 29.812 61.625 C26.246 67.764 21.262 72.128 14.5 74.375 C0.262 77.519 -14.804 76.69 -27.324 68.77 C-29.195 67.395 -30.966 65.993 -32.688 64.438 C-32 60.782 -30.433 57.919 -28.625 54.688 C-28.077 53.703 -27.529 52.718 -26.965 51.703 C-26.543 50.955 -26.122 50.208 -25.688 49.438 C-24.639 49.931 -23.591 50.425 -22.512 50.934 C-21.133 51.581 -19.754 52.228 -18.375 52.875 C-17.685 53.2 -16.994 53.526 -16.283 53.861 C-10.683 56.486 -6.812 57.575 -0.625 57.562 C0.624 57.565 1.873 57.568 3.16 57.57 C6.215 57.657 6.215 57.657 8.312 56.438 C8.312 54.788 8.312 53.138 8.312 51.438 C3.401 49.069 -1.409 47.178 -6.64 45.673 C-15.312 43.164 -21.346 40.447 -27.188 33.438 C-29.94 27.946 -29.38 21.371 -28.688 15.438 C-25.836 9.05 -20.338 4.642 -14.059 1.789 C-9.368 0.125 -4.942 -0.059 0 0 Z " fill="#022669" transform="translate(533.6875,530.5625)"/>
<path d="M0 0 C7.59 0 15.18 0 23 0 C23 5.94 23 11.88 23 18 C28.94 18 34.88 18 41 18 C41 22.95 41 27.9 41 33 C35.06 33 29.12 33 23 33 C23.33 45.54 23.66 58.08 24 71 C31.68 71.038 31.68 71.038 39 70 C39.506 71.915 40.004 73.832 40.5 75.75 C40.778 76.817 41.057 77.885 41.344 78.984 C42 82 42 82 42 86 C40.753 86.651 39.502 87.296 38.25 87.938 C37.554 88.297 36.858 88.657 36.141 89.027 C29.338 92.118 21.266 91.936 14.188 89.812 C8.438 87.585 4.514 84.568 1.856 78.936 C-0.284 73.92 -0.522 69.547 -0.391 64.152 C-0.385 63.255 -0.379 62.358 -0.373 61.433 C-0.351 58.601 -0.301 55.77 -0.25 52.938 C-0.23 51.003 -0.212 49.069 -0.195 47.135 C-0.151 42.423 -0.083 37.712 0 33 C-3.3 33 -6.6 33 -10 33 C-10.027 30.354 -10.047 27.708 -10.062 25.062 C-10.071 24.308 -10.079 23.553 -10.088 22.775 C-10.097 20.85 -10.052 18.925 -10 17 C-9 16 -9 16 -6.934 15.902 C-3.467 15.951 -3.467 15.951 0 16 C0 10.72 0 5.44 0 0 Z " fill="#052E6D" transform="translate(582,516)"/>
<path d="M0 0 C5.651 -0.082 11.303 -0.165 17.125 -0.25 C18.877 -0.286 20.629 -0.323 22.434 -0.36 C34.538 -0.506 47.782 0.182 57 9 C60.343 13.758 61.869 18.131 61 24 C56.853 31.975 50.254 36.152 42 39 C32.794 41.205 23.666 41.243 14.25 41.125 C9.548 41.084 4.845 41.043 0 41 C0 27.47 0 13.94 0 0 Z " fill="#4DA4D8" transform="translate(238,511)"/>
<path d="M0 0 C0 22.11 0 44.22 0 67 C-12.787 67 -22.068 66.942 -31.273 58.039 C-36.412 51.971 -38.898 45.723 -38.48 37.738 C-37.193 30.398 -33.574 24.602 -27.715 20.051 C-25.523 18.708 -23.561 18.155 -21 18 C-20.959 17.319 -20.918 16.639 -20.875 15.938 C-19.069 9.875 -14.753 6.195 -9.375 3.125 C-6.449 1.575 -3.394 0 0 0 Z " fill="#97D5F4" transform="translate(447,374)"/>
<path d="M0 0 C7.59 0 15.18 0 23 0 C23 23.43 23 46.86 23 71 C15.41 71 7.82 71 0 71 C0 47.57 0 24.14 0 0 Z " fill="#00286D" transform="translate(633,534)"/>
<path d="M0 0 C1.605 -0.014 3.21 -0.024 4.815 -0.032 C6.156 -0.041 6.156 -0.041 7.524 -0.05 C14.199 0.085 21.02 2.586 26 7 C31.743 13.617 32.827 19.736 32.461 28.371 C31.13 38.847 25.951 46.811 17.953 53.52 C14.869 55.858 12.266 56.778 8.5 57.438 C4.854 56.799 3.385 54.716 1 52 C0.67 51.67 0.34 51.34 0 51 C-0.093 49.404 -0.117 47.804 -0.114 46.205 C-0.113 45.184 -0.113 44.163 -0.113 43.111 C-0.108 42.001 -0.103 40.89 -0.098 39.746 C-0.096 38.616 -0.095 37.485 -0.093 36.32 C-0.088 32.693 -0.075 29.065 -0.062 25.438 C-0.057 22.985 -0.053 20.533 -0.049 18.08 C-0.038 12.053 -0.021 6.027 0 0 Z " fill="#96D4F3" transform="translate(578,381)"/>
<path d="M0 0 C5.733 0.9 9.728 5.362 14 9 C14.593 9.495 15.186 9.99 15.797 10.5 C17.188 11.75 17.188 11.75 19 14 C18.826 18.212 15.769 20.709 13 23.562 C9.272 27.492 5.772 31.473 2.438 35.75 C-4.326 44.075 -12.19 50.891 -23 53 C-25.824 52.59 -25.824 52.59 -28 52 C-26.076 37.152 -26.076 37.152 -23 31 C-20.898 30.297 -20.898 30.297 -19 30 C-19.195 30.905 -19.195 30.905 -19.395 31.828 C-19.818 34.285 -20.099 36.507 -20 39 C-17.587 41.91 -16.087 42.819 -12.375 43.438 C-9.623 42.93 -8.712 42.163 -7 40 C-8.896 34.914 -13.224 32.891 -17.566 30 C-20 28 -20 28 -21.02 25.941 C-21 24 -21 24 -19.883 22.465 C-19.303 21.961 -18.723 21.457 -18.125 20.938 C-13.219 16.385 -9.184 11.209 -5 6 C-3.342 3.992 -1.672 1.996 0 0 Z " fill="#012E6E" transform="translate(554,424)"/>
<path d="M0 0 C4.935 2.291 7.353 5.294 10 10 C11.983 16.462 11.605 23.004 8.984 29.211 C6.667 33.423 3.382 36.18 -1 38 C-5.909 38.697 -9.886 38.537 -14.375 36.375 C-18.828 32.346 -21.781 28.16 -22.203 22.074 C-22.317 13.865 -21.841 8.728 -16.062 2.625 C-11.257 -1.26 -5.872 -0.947 0 0 Z " fill="#F6FAFB" transform="translate(462,550)"/>
<path d="M0 0 C3.771 -0.118 7.541 -0.188 11.312 -0.25 C12.891 -0.3 12.891 -0.3 14.502 -0.352 C23.218 -0.459 30.419 1.271 37.938 5.75 C41.74 9.898 43.731 14.05 44.5 19.625 C43.632 25.484 40.367 29.256 35.746 32.84 C24.968 40.001 12.557 40.365 0 40 C2.543 37.095 5.402 35.566 8.805 33.785 C10.516 32.879 10.516 32.879 12.262 31.955 C13.466 31.324 14.67 30.693 15.875 30.062 C18.23 28.83 20.581 27.591 22.93 26.348 C23.974 25.801 25.018 25.255 26.093 24.692 C28.974 23.015 31.457 21.148 34 19 C22.812 12.681 11.549 6.633 0 1 C0 0.67 0 0.34 0 0 Z " fill="#DAF0F8" transform="translate(255,512)"/>
<path d="M0 0 C0.66 -0.004 1.321 -0.007 2.001 -0.011 C4.188 -0.019 6.375 -0.014 8.562 -0.007 C10.079 -0.008 11.596 -0.01 13.113 -0.013 C16.294 -0.016 19.475 -0.011 22.656 -0.002 C26.739 0.009 30.821 0.003 34.904 -0.009 C38.036 -0.016 41.169 -0.014 44.302 -0.009 C45.808 -0.008 47.313 -0.009 48.819 -0.014 C50.921 -0.019 53.023 -0.011 55.125 0 C56.921 0.002 56.921 0.002 58.754 0.005 C61.562 0.259 61.562 0.259 63.562 2.259 C63.875 5.259 63.875 5.259 63.562 8.259 C59.972 10.653 58.37 10.512 54.103 10.518 C53.127 10.523 53.127 10.523 52.131 10.528 C49.982 10.537 47.833 10.531 45.684 10.524 C44.191 10.526 42.697 10.528 41.204 10.53 C38.076 10.533 34.949 10.529 31.821 10.52 C27.806 10.508 23.793 10.515 19.778 10.527 C16.696 10.534 13.614 10.532 10.532 10.526 C9.051 10.525 7.571 10.527 6.09 10.531 C4.024 10.536 1.958 10.529 -0.108 10.518 C-1.873 10.515 -1.873 10.515 -3.674 10.513 C-6.438 10.259 -6.438 10.259 -8.438 8.259 C-8.688 5.259 -8.688 5.259 -8.438 2.259 C-5.641 -0.537 -3.917 0.005 0 0 Z " fill="#001E62" transform="translate(481.4375,404.7412109375)"/>
<path d="M0 0 C1.005 -0.008 1.005 -0.008 2.031 -0.015 C4.25 -0.029 6.47 -0.028 8.689 -0.026 C10.229 -0.03 11.768 -0.034 13.307 -0.039 C16.536 -0.047 19.764 -0.046 22.992 -0.041 C27.135 -0.035 31.278 -0.052 35.421 -0.075 C38.6 -0.09 41.779 -0.091 44.958 -0.088 C46.486 -0.088 48.014 -0.094 49.542 -0.104 C51.675 -0.116 53.808 -0.109 55.941 -0.098 C57.157 -0.098 58.372 -0.099 59.624 -0.1 C60.564 0.024 61.503 0.147 62.471 0.275 C64.471 3.275 64.471 3.275 64.158 5.9 C63.471 8.275 63.471 8.275 62.471 9.275 C60.304 9.385 58.133 9.424 55.963 9.436 C55.283 9.441 54.604 9.446 53.903 9.451 C51.646 9.465 49.388 9.472 47.131 9.478 C45.568 9.484 44.004 9.489 42.441 9.495 C39.16 9.506 35.879 9.511 32.598 9.515 C28.386 9.52 24.175 9.544 19.964 9.573 C16.734 9.591 13.504 9.597 10.274 9.598 C8.721 9.601 7.168 9.609 5.615 9.622 C3.446 9.639 1.277 9.638 -0.892 9.631 C-2.746 9.637 -2.746 9.637 -4.638 9.642 C-5.592 9.521 -6.546 9.4 -7.529 9.275 C-9.529 6.275 -9.529 6.275 -9.279 4.212 C-7.442 -0.535 -4.582 0.017 0 0 Z " fill="#011E61" transform="translate(481.529296875,378.725341796875)"/>
<path d="M0 0 C3.176 -0.062 6.353 -0.124 9.625 -0.188 C11.109 -0.228 11.109 -0.228 12.624 -0.27 C17.827 -0.319 21.565 -0.036 26 3 C28.821 5.868 29.431 7.951 29.438 11.938 C29.325 15.425 29.062 16.889 27.312 20 C21.921 24.663 16.468 24.249 9.688 24.125 C4.892 24.063 4.892 24.063 0 24 C0 16.08 0 8.16 0 0 Z " fill="#F6FAFB" transform="translate(357,531)"/>
<path d="M0 0 C4.413 2.166 7.091 4.439 9 9 C9.571 14.23 8.849 17.578 6 22 C2.351 25.376 -0.281 26.802 -5.25 27.375 C-9.913 26.909 -12.709 25.3 -16 22 C-18.744 17.604 -18.909 13.024 -18 8 C-13.549 0.409 -8.456 -0.935 0 0 Z " fill="#053E7A" transform="translate(649,499)"/>
<path d="M0 0 C0.874 -0.006 1.748 -0.013 2.649 -0.019 C4.06 -0.013 4.06 -0.013 5.5 -0.007 C6.467 -0.009 7.435 -0.011 8.432 -0.013 C10.477 -0.014 12.522 -0.01 14.567 -0.002 C17.706 0.009 20.844 -0.002 23.982 -0.015 C25.967 -0.013 27.952 -0.011 29.937 -0.007 C31.351 -0.013 31.351 -0.013 32.794 -0.019 C34.101 -0.01 34.101 -0.01 35.434 0 C36.586 0.002 36.586 0.002 37.761 0.005 C39.652 0.259 39.652 0.259 41.652 2.259 C41.902 5.259 41.902 5.259 41.652 8.259 C39.228 10.683 38.641 10.511 35.326 10.518 C34.432 10.524 33.537 10.53 32.616 10.537 C31.164 10.531 31.164 10.531 29.683 10.524 C28.196 10.527 28.196 10.527 26.68 10.53 C24.581 10.532 22.483 10.528 20.385 10.52 C17.165 10.509 13.946 10.519 10.726 10.532 C8.691 10.531 6.656 10.528 4.621 10.524 C3.653 10.528 2.685 10.533 1.688 10.537 C0.794 10.53 -0.1 10.524 -1.022 10.518 C-1.811 10.516 -2.6 10.514 -3.412 10.513 C-5.348 10.259 -5.348 10.259 -7.348 8.259 C-7.66 5.259 -7.66 5.259 -7.348 2.259 C-4.231 0.181 -3.538 0.007 0 0 Z " fill="#012263" transform="translate(480.347900390625,351.7412109375)"/>
<path d="M0 0 C5.476 0.119 9.075 1.348 13.188 5.062 C14.807 8.492 14.187 10.69 13.25 14.312 C10.543 19.834 6.925 22.332 1.25 24.312 C0.26 24.312 -0.73 24.312 -1.75 24.312 C-1.75 27.612 -1.75 30.913 -1.75 34.312 C-3.07 34.312 -4.39 34.312 -5.75 34.312 C-5.942 29.792 -6.121 25.272 -6.287 20.75 C-6.346 19.212 -6.408 17.674 -6.474 16.135 C-6.568 13.926 -6.648 11.717 -6.727 9.508 C-6.759 8.818 -6.791 8.129 -6.824 7.418 C-6.878 5.717 -6.823 4.013 -6.75 2.312 C-4.27 -0.168 -3.422 0.016 0 0 Z " fill="#213859" transform="translate(513.75,643.6875)"/>
<path d="M0 0 C2.351 0.163 2.351 0.163 5 1 C6.362 3.329 6.362 3.329 7.387 6.391 C7.768 7.493 8.149 8.595 8.541 9.73 C8.919 10.892 9.298 12.053 9.688 13.25 C10.462 15.526 11.237 17.802 12.012 20.078 C12.346 21.093 12.681 22.108 13.026 23.153 C13.664 25.019 14.362 26.864 15.124 28.683 C16 31 16 31 16 34 C14.35 34 12.7 34 11 34 C10.01 31.03 9.02 28.06 8 25 C3.71 24.67 -0.58 24.34 -5 24 C-5.33 25.65 -5.66 27.3 -6 29 C-6.634 30.679 -7.293 32.35 -8 34 C-9.32 34 -10.64 34 -12 34 C-8.717 22.416 -4.589 11.127 0 0 Z " fill="#3C5470" transform="translate(487,644)"/>
<path d="M0 0 C7.59 0 15.18 0 23 0 C23 23.43 23 46.86 23 71 C15.41 71 7.82 71 0 71 C0 47.57 0 24.14 0 0 Z M1 2 C0.888 12.567 1.186 23.077 1.644 33.634 C2.429 52.141 2.429 52.141 1 55 C0.929 57.374 0.916 59.75 0.938 62.125 C0.958 64.394 0.979 66.663 1 69 C7.6 69 14.2 69 21 69 C21 46.89 21 24.78 21 2 C14.4 2 7.8 2 1 2 Z " fill="#11255F" transform="translate(633,534)"/>
<path d="M0 0 C4.95 0 9.9 0 15 0 C16 3 16 3 14.375 6.562 C12.352 9.905 10.695 10.707 7 12 C4.539 14.666 3.15 16.55 2 20 C3.186 23.262 4.001 24 7 26 C6.67 26.66 6.34 27.32 6 28 C6.99 28 7.98 28 9 28 C9.33 29.98 9.66 31.96 10 34 C10.66 34 11.32 34 12 34 C12 35.65 12 37.3 12 39 C8.04 39 4.08 39 0 39 C0 26.13 0 13.26 0 0 Z " fill="#87C9EA" transform="translate(238,512)"/>
<path d="M0 0 C1.305 0.003 2.61 0.006 3.955 0.01 C5.256 -0.006 6.558 -0.022 7.898 -0.039 C9.765 -0.04 9.765 -0.04 11.67 -0.041 C12.815 -0.044 13.959 -0.047 15.138 -0.05 C18.018 0.322 18.018 0.322 19.895 1.685 C21.48 3.996 21.369 5.585 21.018 8.322 C17.659 11.681 13.243 10.619 8.68 10.645 C8.007 10.642 7.334 10.64 6.641 10.638 C4.591 10.635 2.542 10.658 0.492 10.684 C-0.798 10.684 -2.087 10.685 -3.416 10.686 C-4.603 10.689 -5.789 10.692 -7.011 10.695 C-9.982 10.322 -9.982 10.322 -11.905 8.96 C-12.982 7.322 -12.982 7.322 -12.795 4.76 C-10.724 -1.452 -5.601 0.032 0 0 Z " fill="#031E5E" transform="translate(484.982421875,430.677734375)"/>
<path d="M0 0 C2.645 3.125 3.844 6.088 5 10 C5.99 9.67 6.98 9.34 8 9 C9.394 8.933 10.792 8.915 12.188 8.938 C14.075 8.968 14.075 8.968 16 9 C14.611 12.356 13.083 14.073 10 16 C9.34 16 8.68 16 8 16 C8.289 16.615 8.577 17.23 8.875 17.863 C9.246 18.672 9.617 19.48 10 20.312 C10.371 21.113 10.742 21.914 11.125 22.738 C12 25 12 25 12 28 C9.293 27.023 7.214 26.18 5 24.312 C3.058 22.756 3.058 22.756 0.562 23.125 C-2.244 24.083 -4.527 25.375 -7 27 C-6.87 26.325 -6.74 25.649 -6.605 24.953 C-6.185 22.236 -5.879 19.749 -6 17 C-8.281 14.44 -8.281 14.44 -11 13 C-11 12.34 -11 11.68 -11 11 C-8.36 10.67 -5.72 10.34 -3 10 C-2.867 9.362 -2.734 8.724 -2.598 8.066 C-2.421 7.24 -2.244 6.414 -2.062 5.562 C-1.888 4.739 -1.714 3.915 -1.535 3.066 C-1 1 -1 1 0 0 Z " fill="#092D67" transform="translate(567,451)"/>
<path d="M0 0 C15.18 0 30.36 0 46 0 C46 0.33 46 0.66 46 1 C31.15 1 16.3 1 1 1 C1.144 6.48 1.289 11.96 1.438 17.605 C1.529 21.101 1.62 24.596 1.711 28.092 C1.855 33.626 1.999 39.16 2.146 44.694 C2.264 49.161 2.38 53.629 2.496 58.096 C2.54 59.791 2.584 61.486 2.63 63.18 C2.886 72.79 3.067 82.386 3 92 C3.589 91.837 4.178 91.674 4.784 91.506 C7.955 90.782 11.003 90.907 14.25 90.938 C16.145 90.951 16.145 90.951 18.078 90.965 C19.524 90.982 19.524 90.982 21 91 C20.992 89.933 20.992 89.933 20.984 88.844 C20.963 85.625 20.95 82.407 20.938 79.188 C20.929 78.068 20.921 76.948 20.912 75.795 C20.907 74.185 20.907 74.185 20.902 72.543 C20.894 71.058 20.894 71.058 20.886 69.544 C21 67 21 67 22 64 C26.901 61.549 33.752 63.125 39 64 C39 64.33 39 64.66 39 65 C33.72 65 28.44 65 23 65 C23 74.57 23 84.14 23 94 C15.41 94 7.82 94 0 94 C0 62.98 0 31.96 0 0 Z " fill="#031E57" transform="translate(334,511)"/>
<path d="M0 0 C3.375 -0.088 6.749 -0.141 10.125 -0.188 C11.552 -0.225 11.552 -0.225 13.008 -0.264 C18.517 -0.321 22.187 0.027 27 3 C28.992 3.69 30.991 4.361 33 5 C33.66 5.33 34.32 5.66 35 6 C35 6.66 35 7.32 35 8 C35.66 8.33 36.32 8.66 37 9 C36.427 11.867 36.139 12.861 34 15 C34 13.68 34 12.36 34 11 C33.34 11.33 32.68 11.66 32 12 C32 13.32 32 14.64 32 16 C28.107 15.395 25.103 14.209 21.621 12.383 C20.116 11.596 20.116 11.596 18.58 10.793 C17.543 10.243 16.506 9.692 15.438 9.125 C14.397 8.582 13.356 8.04 12.283 7.48 C7.962 5.207 3.842 3.033 0 0 Z " fill="#E5F7FB" transform="translate(255,512)"/>
<path d="M0 0 C0.33 0 0.66 0 1 0 C1.33 8.25 1.66 16.5 2 25 C2.66 25 3.32 25 4 25 C4.33 25.66 4.66 26.32 5 27 C6.097 26.995 7.193 26.99 8.323 26.984 C48.455 26.809 48.455 26.809 67 28 C67 26.02 67 24.04 67 22 C47.86 22 28.72 22 9 22 C9 21.67 9 21.34 9 21 C28.8 21 48.6 21 69 21 C69 23.97 69 26.94 69 30 C60.742 30.093 52.484 30.164 44.225 30.207 C40.39 30.228 36.556 30.256 32.721 30.302 C29.019 30.345 25.317 30.369 21.614 30.38 C20.203 30.387 18.792 30.401 17.381 30.423 C15.402 30.452 13.422 30.454 11.443 30.454 C10.317 30.463 9.191 30.472 8.031 30.481 C4.302 29.889 2.638 28.658 0 26 C-0.568 23.159 -0.568 23.159 -0.488 19.922 C-0.472 18.762 -0.456 17.602 -0.439 16.406 C-0.398 15.2 -0.356 13.993 -0.312 12.75 C-0.29 11.528 -0.267 10.306 -0.244 9.047 C-0.185 6.03 -0.103 3.016 0 0 Z " fill="#11265A" transform="translate(448,450)"/>
<path d="M0 0 C0.851 -0.01 1.702 -0.02 2.579 -0.031 C5.385 -0.059 8.19 -0.057 10.996 -0.052 C12.95 -0.06 14.904 -0.069 16.858 -0.078 C20.95 -0.093 25.042 -0.093 29.134 -0.082 C34.377 -0.07 39.618 -0.104 44.861 -0.151 C48.894 -0.18 52.928 -0.182 56.962 -0.176 C58.895 -0.177 60.828 -0.187 62.761 -0.207 C65.464 -0.232 68.164 -0.219 70.867 -0.195 C71.664 -0.211 72.461 -0.226 73.282 -0.242 C76.306 -0.184 78.706 -0.066 81.073 1.935 C82.469 3.596 82.469 3.596 84.434 6.549 C83.444 6.549 82.454 6.549 81.434 6.549 C80.444 4.569 80.444 4.569 79.434 2.549 C50.394 2.879 21.354 3.209 -8.566 3.549 C-11.322 9.06 -11.762 13.323 -11.883 19.374 C-11.904 20.235 -11.924 21.096 -11.946 21.984 C-12.011 24.735 -12.07 27.486 -12.129 30.237 C-12.172 32.102 -12.216 33.967 -12.26 35.833 C-12.367 40.405 -12.468 44.977 -12.566 49.549 C-12.896 49.549 -13.226 49.549 -13.566 49.549 C-13.693 43.214 -13.781 36.879 -13.841 30.543 C-13.866 28.388 -13.9 26.232 -13.944 24.077 C-14.004 20.979 -14.033 17.882 -14.055 14.784 C-14.08 13.82 -14.106 12.856 -14.133 11.863 C-14.133 10.963 -14.134 10.062 -14.134 9.134 C-14.145 8.344 -14.156 7.553 -14.168 6.739 C-12.314 -0.012 -5.912 -0.037 0 0 Z " fill="#264472" transform="translate(461.56640625,306.45068359375)"/>
<path d="M0 0 C1.675 0.286 3.344 0.618 5 1 C4.34 1.99 3.68 2.98 3 4 C2.567 5.516 2.567 5.516 2.125 7.062 C1 10 1 10 -1.125 11.375 C-1.744 11.581 -2.363 11.788 -3 12 C-3 12.66 -3 13.32 -3 14 C-4.32 14 -5.64 14 -7 14 C-7 14.66 -7 15.32 -7 16 C-14.729 17.954 -22.05 18.224 -30 18 C-27.428 15.054 -24.492 13.498 -21.055 11.68 C-19.896 11.062 -18.737 10.445 -17.543 9.809 C-16.32 9.164 -15.098 8.519 -13.875 7.875 C-11.475 6.604 -9.077 5.33 -6.68 4.055 C-5.615 3.492 -4.55 2.93 -3.453 2.351 C-1.124 1.216 -1.124 1.216 0 0 Z " fill="#F0FAFC" transform="translate(285,534)"/>
<path d="M0 0 C0.66 -0.004 1.321 -0.007 2.001 -0.011 C4.188 -0.019 6.375 -0.014 8.562 -0.007 C10.079 -0.008 11.596 -0.01 13.113 -0.013 C16.294 -0.016 19.475 -0.011 22.656 -0.002 C26.739 0.009 30.821 0.003 34.904 -0.009 C38.036 -0.016 41.169 -0.014 44.302 -0.009 C45.808 -0.008 47.313 -0.009 48.819 -0.014 C50.921 -0.019 53.023 -0.011 55.125 0 C56.921 0.002 56.921 0.002 58.754 0.005 C61.562 0.259 61.562 0.259 63.562 2.259 C63.875 5.259 63.875 5.259 63.562 8.259 C59.972 10.653 58.37 10.512 54.103 10.518 C53.127 10.523 53.127 10.523 52.131 10.528 C49.982 10.537 47.833 10.531 45.684 10.524 C44.191 10.526 42.697 10.528 41.204 10.53 C38.076 10.533 34.949 10.529 31.821 10.52 C27.806 10.508 23.793 10.515 19.778 10.527 C16.696 10.534 13.614 10.532 10.532 10.526 C9.051 10.525 7.571 10.527 6.09 10.531 C4.024 10.536 1.958 10.529 -0.108 10.518 C-1.873 10.515 -1.873 10.515 -3.674 10.513 C-6.438 10.259 -6.438 10.259 -8.438 8.259 C-8.688 5.259 -8.688 5.259 -8.438 2.259 C-5.641 -0.537 -3.917 0.005 0 0 Z M-6.331 3.288 C-6.696 3.938 -7.061 4.589 -7.438 5.259 C-7.108 5.919 -6.777 6.579 -6.438 7.259 C-3.108 8.369 -0.637 8.379 2.87 8.372 C4.171 8.372 5.472 8.372 6.813 8.372 C8.233 8.367 9.654 8.362 11.074 8.356 C12.527 8.355 13.98 8.353 15.433 8.352 C19.256 8.348 23.078 8.339 26.9 8.327 C30.801 8.317 34.702 8.313 38.604 8.308 C46.257 8.297 53.91 8.28 61.562 8.259 C61.605 6.259 61.603 4.258 61.562 2.259 C59.753 0.449 56.968 1.103 54.53 1.082 C53.238 1.069 51.947 1.056 50.616 1.043 C49.194 1.035 47.773 1.027 46.352 1.021 C45.639 1.016 44.927 1.012 44.193 1.008 C40.422 0.987 36.651 0.973 32.881 0.964 C28.981 0.953 25.082 0.918 21.182 0.878 C18.188 0.852 15.194 0.844 12.2 0.84 C10.762 0.835 9.325 0.824 7.887 0.805 C5.876 0.781 3.865 0.784 1.854 0.789 C0.709 0.783 -0.436 0.777 -1.616 0.771 C-4.568 0.989 -4.568 0.989 -6.331 3.288 Z " fill="#162D5C" transform="translate(481.4375,404.7412109375)"/>
<path d="M0 0 C5.733 0.9 9.728 5.362 14 9 C14.593 9.495 15.186 9.99 15.797 10.5 C17.188 11.75 17.188 11.75 19 14 C18.642 17.208 17.466 18.931 15.277 21.234 C14.739 21.808 14.201 22.382 13.646 22.973 C13.083 23.559 12.519 24.146 11.938 24.75 C11.37 25.352 10.802 25.954 10.217 26.574 C8.818 28.056 7.41 29.529 6 31 C6 27.196 7.185 26.076 9.438 23.062 C12.621 18.924 12.621 18.924 14 14 C12.604 12.354 12.604 12.354 11 11 C11 10.34 11 9.68 11 9 C9.68 9 8.36 9 7 9 C6.567 8.484 6.134 7.969 5.688 7.438 C3.933 5.642 3.933 5.642 0.562 5.875 C-3.256 6.655 -3.256 6.655 -4.938 10.125 C-5.233 10.751 -5.528 11.378 -5.832 12.023 C-7.683 15.156 -10.392 17.158 -13.195 19.422 C-15.231 21.063 -15.231 21.063 -17 24 C-16.845 26.884 -16.167 27.84 -14.074 29.852 C-13.287 30.437 -12.499 31.022 -11.688 31.625 C-10.908 32.215 -10.128 32.806 -9.324 33.414 C-7.266 34.818 -5.258 35.956 -3 37 C-3.33 37.99 -3.66 38.98 -4 40 C-4.969 39.134 -5.939 38.267 -6.938 37.375 C-10.455 34.325 -14.193 31.884 -18.18 29.492 C-20 28 -20 28 -20.938 26.012 C-21 24 -21 24 -19.883 22.465 C-19.303 21.961 -18.723 21.457 -18.125 20.938 C-13.219 16.385 -9.184 11.209 -5 6 C-3.342 3.992 -1.672 1.996 0 0 Z " fill="#0A2355" transform="translate(554,424)"/>
<path d="M0 0 C0.99 0 1.98 0 3 0 C2.87 0.603 2.74 1.207 2.605 1.828 C2.182 4.285 1.901 6.507 2 9 C4.394 11.887 5.861 12.833 9.562 13.375 C12.079 12.988 13.819 12.293 16 11 C16 14 16 14 14.566 15.5 C9.78 19.083 4.994 22.042 -1 23 C-3.77 22.566 -3.77 22.566 -6 22 C-3.618 3.618 -3.618 3.618 0 0 Z " fill="#002269" transform="translate(532,454)"/>
<path d="M0 0 C0.33 0 0.66 0 1 0 C1.33 33 1.66 66 2 100 C12.56 100 23.12 100 34 100 C34 92.41 34 84.82 34 77 C34.33 77 34.66 77 35 77 C35 85.58 35 94.16 35 103 C23.45 103 11.9 103 0 103 C0 69.01 0 35.02 0 0 Z " fill="#206EAF" transform="translate(225,503)"/>
<path d="M0 0 C7.801 6.687 7.801 6.687 11.188 10.688 C13.121 12.967 14.826 14.872 17.238 16.645 C18.11 17.315 18.11 17.315 19 18 C19 18.66 19 19.32 19 20 C12.73 20 6.46 20 0 20 C0 13.4 0 6.8 0 0 Z " fill="#6CC8F4" transform="translate(543,324)"/>
<path d="M0 0 C2.351 0.163 2.351 0.163 5 1 C6.362 3.329 6.362 3.329 7.387 6.391 C7.768 7.493 8.149 8.595 8.541 9.73 C8.919 10.892 9.298 12.053 9.688 13.25 C10.462 15.526 11.237 17.802 12.012 20.078 C12.346 21.093 12.681 22.108 13.026 23.153 C13.664 25.019 14.362 26.864 15.124 28.683 C16 31 16 31 16 34 C14.35 34 12.7 34 11 34 C10.01 30.37 9.02 26.74 8 23 C4.04 23 0.08 23 -4 23 C-4 22.34 -4 21.68 -4 21 C-0.37 21 3.26 21 7 21 C6.361 19.453 5.721 17.906 5.062 16.312 C3.645 12.882 2.627 9.662 2 6 C1.01 7.32 0.02 8.64 -1 10 C-1.125 2.25 -1.125 2.25 0 0 Z " fill="#162F54" transform="translate(487,644)"/>
<path d="M0 0 C0.874 -0.006 1.748 -0.013 2.649 -0.019 C4.06 -0.013 4.06 -0.013 5.5 -0.007 C6.467 -0.009 7.435 -0.011 8.432 -0.013 C10.477 -0.014 12.522 -0.01 14.567 -0.002 C17.706 0.009 20.844 -0.002 23.982 -0.015 C25.967 -0.013 27.952 -0.011 29.937 -0.007 C31.351 -0.013 31.351 -0.013 32.794 -0.019 C34.101 -0.01 34.101 -0.01 35.434 0 C36.586 0.002 36.586 0.002 37.761 0.005 C39.652 0.259 39.652 0.259 41.652 2.259 C41.902 5.259 41.902 5.259 41.652 8.259 C39.228 10.683 38.641 10.511 35.326 10.518 C34.432 10.524 33.537 10.53 32.616 10.537 C31.164 10.531 31.164 10.531 29.683 10.524 C28.196 10.527 28.196 10.527 26.68 10.53 C24.581 10.532 22.483 10.528 20.385 10.52 C17.165 10.509 13.946 10.519 10.726 10.532 C8.691 10.531 6.656 10.528 4.621 10.524 C3.653 10.528 2.685 10.533 1.688 10.537 C0.794 10.53 -0.1 10.524 -1.022 10.518 C-1.811 10.516 -2.6 10.514 -3.412 10.513 C-5.348 10.259 -5.348 10.259 -7.348 8.259 C-7.66 5.259 -7.66 5.259 -7.348 2.259 C-4.231 0.181 -3.538 0.007 0 0 Z M-4.348 2.259 C-5.392 5.392 -5.282 6.248 -4.348 9.259 C1.739 9.308 7.826 9.344 13.914 9.369 C15.986 9.379 18.058 9.392 20.13 9.41 C23.103 9.434 26.077 9.445 29.051 9.454 C29.981 9.464 30.911 9.475 31.869 9.485 C33.161 9.486 33.161 9.486 34.478 9.486 C35.617 9.493 35.617 9.493 36.779 9.499 C38.897 9.421 38.897 9.421 40.652 7.259 C40.247 4.476 40.247 4.476 38.652 2.259 C37.301 2.166 35.945 2.141 34.591 2.145 C33.73 2.145 32.87 2.145 31.983 2.145 C30.58 2.153 30.58 2.153 29.148 2.161 C27.719 2.163 27.719 2.163 26.26 2.165 C23.203 2.171 20.146 2.184 17.09 2.196 C15.023 2.201 12.955 2.206 10.888 2.21 C5.81 2.221 0.731 2.238 -4.348 2.259 Z " fill="#152A5D" transform="translate(480.347900390625,351.7412109375)"/>
<path d="M0 0 C6 0 6 0 8.875 1.562 C11 4 11 4 11.562 7.438 C10.903 11.613 10.137 13.185 7 16 C4.69 16.66 2.38 17.32 0 18 C0 12.06 0 6.12 0 0 Z " fill="#EAF1F5" transform="translate(512,647)"/>
<path d="M0 0 C0.684 0.01 1.367 0.019 2.072 0.029 C4.312 0.062 6.552 0.102 8.792 0.143 C10.352 0.167 11.913 0.191 13.474 0.214 C17.568 0.277 21.661 0.346 25.754 0.417 C29.937 0.488 34.12 0.552 38.303 0.617 C46.5 0.746 54.697 0.882 62.893 1.022 C62.893 1.682 62.893 2.342 62.893 3.022 C53.279 3.068 43.665 3.104 34.051 3.125 C29.588 3.136 25.124 3.15 20.66 3.173 C16.355 3.194 12.05 3.206 7.744 3.211 C6.099 3.215 4.454 3.222 2.809 3.233 C0.51 3.248 -1.788 3.25 -4.087 3.249 C-5.397 3.253 -6.707 3.258 -8.057 3.262 C-11.107 3.022 -11.107 3.022 -13.107 1.022 C-8.664 0.155 -4.522 -0.073 0 0 Z " fill="#05255D" transform="translate(470.10693359375,313.978271484375)"/>
<path d="M0 0 C1.115 0.004 2.229 0.009 3.378 0.013 C5.27 0.014 5.27 0.014 7.2 0.014 C8.581 0.024 9.963 0.035 11.344 0.045 C12.754 0.049 14.164 0.052 15.573 0.054 C19.285 0.061 22.997 0.081 26.71 0.103 C30.497 0.124 34.284 0.133 38.071 0.143 C45.503 0.164 52.935 0.198 60.368 0.241 C60.368 0.571 60.368 0.901 60.368 1.241 C29.678 1.736 29.678 1.736 -1.632 2.241 C-1.632 3.891 -1.632 5.541 -1.632 7.241 C31.533 7.736 31.533 7.736 65.368 8.241 C65.368 8.571 65.368 8.901 65.368 9.241 C56.406 9.31 47.444 9.363 38.482 9.396 C34.321 9.412 30.16 9.433 25.999 9.467 C21.985 9.499 17.972 9.517 13.958 9.525 C12.425 9.531 10.891 9.542 9.358 9.558 C7.215 9.579 5.072 9.582 2.929 9.581 C1.097 9.591 1.097 9.591 -0.772 9.601 C-1.716 9.482 -2.66 9.363 -3.632 9.241 C-5.632 6.241 -5.632 6.241 -5.382 4.178 C-4.2 1.123 -3.275 0.299 0 0 Z " fill="#061B51" transform="translate(477.6322326660156,378.7594909667969)"/>
<path d="M0 0 C4.241 0.623 7.524 2.098 11.324 4.055 C11.912 4.357 12.499 4.659 13.104 4.97 C14.339 5.608 15.572 6.248 16.803 6.892 C18.687 7.875 20.578 8.842 22.471 9.809 C23.672 10.431 24.874 11.055 26.074 11.68 C27.163 12.244 28.252 12.809 29.374 13.39 C32 15 32 15 34 18 C31.294 19.607 28.585 21.21 25.875 22.812 C25.114 23.264 24.354 23.716 23.57 24.182 C14.842 29.336 14.842 29.336 11 31 C10.34 30.67 9.68 30.34 9 30 C10.656 26.687 14.199 26.306 17.555 25.098 C20 24 21.182 22.908 23 21 C25.688 20.312 25.688 20.312 28 20 C28 18.35 28 16.7 28 15 C26.35 15.33 24.7 15.66 23 16 C23 15.34 23 14.68 23 14 C20.525 13.505 20.525 13.505 18 13 C18 12.01 18 11.02 18 10 C17.141 9.743 16.283 9.487 15.398 9.223 C11.858 7.949 8.861 6.351 5.625 4.438 C4.565 3.817 3.506 3.197 2.414 2.559 C1.617 2.044 0.821 1.53 0 1 C0 0.67 0 0.34 0 0 Z " fill="#3F8CB9" transform="translate(256,514)"/>
<path d="M0 0 C5.305 0.332 9.246 3.461 13 7 C14.238 9.199 14.238 9.199 15 11 C12.983 13.39 11.714 14.831 8.625 15.562 C4.66 14.713 2.706 12.963 0 10 C0.068 6.61 0.933 4.201 2 1 C1.34 0.67 0.68 0.34 0 0 Z " fill="#EEE593" transform="translate(533,453)"/>
<path d="M0 0 C1.32 0 2.64 0 4 0 C4 10.89 4 21.78 4 33 C2.68 33 1.36 33 0 33 C0 22.11 0 11.22 0 0 Z " fill="#183255" transform="translate(535,645)"/>
<path d="M0 0 C7.668 -0.051 15.336 -0.086 23.004 -0.11 C25.61 -0.12 28.216 -0.134 30.823 -0.151 C34.578 -0.175 38.334 -0.187 42.09 -0.195 C43.246 -0.206 44.403 -0.216 45.595 -0.227 C52.058 -0.227 57.75 0.328 64 2 C64 2.33 64 2.66 64 3 C32.32 2.505 32.32 2.505 0 2 C0 1.34 0 0.68 0 0 Z " fill="#4495C8" transform="translate(225,501)"/>
<path d="M0 0 C4.356 4.678 6.511 10.207 9 16 C9.313 16.691 9.626 17.382 9.949 18.094 C11.427 21.381 12.552 24.419 13 28 C13.144 29.114 13.289 30.227 13.438 31.375 C12.857 36.185 10.737 38.966 7 42 C4.07 43.063 1.348 43.108 -1.75 43.062 C-2.549 43.053 -3.348 43.044 -4.172 43.035 C-4.775 43.024 -5.378 43.012 -6 43 C-6 42.34 -6 41.68 -6 41 C-4.783 41.103 -3.566 41.206 -2.312 41.312 C1.189 41.306 1.861 41.105 4.812 38.875 C7.023 35.969 8.693 33.412 10 30 C9.469 26.731 8.166 23.745 6.934 20.684 C6.329 19.167 6.329 19.167 5.713 17.619 C4.861 15.493 4.007 13.368 3.15 11.244 C2.749 10.234 2.347 9.224 1.934 8.184 C1.563 7.261 1.192 6.339 0.81 5.388 C0 3 0 3 0 0 Z " fill="#081B56" transform="translate(742,575)"/>
<path d="M0 0 C2 2 2 2 2.188 4.977 C1.833 11.877 1.487 17.252 -3.277 22.512 C-8.284 26.837 -13.773 27.715 -20.203 27.555 C-25.105 26.582 -28.748 23.721 -32 20 C-32.742 17.766 -32.742 17.766 -33 16 C-30 17 -30 17 -28.062 19.438 C-25.525 22.59 -23.657 23.789 -19.633 24.301 C-14.38 24.325 -10.377 24.231 -6 21 C-1.073 14.842 -0.807 7.654 0 0 Z " fill="#0E1D57" transform="translate(473,563)"/>
<path d="M0 0 C5.494 2.699 5.494 2.699 6.875 6.25 C6.916 6.827 6.957 7.405 7 8 C4.5 6.625 4.5 6.625 2 5 C2 4.34 2 3.68 2 3 C-1.96 3 -5.92 3 -10 3 C-10.66 4.32 -11.32 5.64 -12 7 C-12.66 7.66 -13.32 8.32 -14 9 C-15.088 13.005 -15.947 17.212 -13.945 20.992 C-12.448 22.827 -12.448 22.827 -10 25 C-12.974 24.116 -14.713 23.317 -16.812 21 C-18.554 16.599 -18.92 12.658 -18 8 C-13.534 0.421 -8.466 -0.946 0 0 Z " fill="#052C60" transform="translate(649,499)"/>
<path d="M0 0 C6.46 2.85 9.684 8.948 12.375 15.188 C14.169 26.131 13.907 36.84 7.469 46.234 C6.053 47.969 4.717 49.563 3 51 C2.34 51 1.68 51 1 51 C1.812 49.062 1.812 49.062 3 47 C4.485 46.505 4.485 46.505 6 46 C6.991 43.703 6.991 43.703 7.625 41 C8.927 36.073 8.927 36.073 10 35 C10.995 20.896 10.995 20.896 6 8 C3.434 6.192 3.434 6.192 1 5 C0.188 2.312 0.188 2.312 0 0 Z " fill="#0E3067" transform="translate(397,517)"/>
<path d="M0 0 C0.33 0 0.66 0 1 0 C1 18.15 1 36.3 1 55 C-6.59 55 -14.18 55 -22 55 C-21.34 54.01 -20.68 53.02 -20 52 C-20 52.66 -20 53.32 -20 54 C-19.056 53.801 -19.056 53.801 -18.094 53.598 C-12.737 52.493 -7.436 51.604 -2 51 C-1.058 48.175 -0.883 46.496 -0.902 43.576 C-0.906 42.685 -0.909 41.794 -0.912 40.876 C-0.921 39.917 -0.929 38.957 -0.938 37.969 C-0.941 36.981 -0.945 35.994 -0.949 34.976 C-0.961 31.818 -0.98 28.659 -1 25.5 C-1.027 21.344 -1.047 17.188 -1.062 13.031 C-1.071 12.072 -1.079 11.112 -1.088 10.124 C-1.091 9.233 -1.094 8.342 -1.098 7.424 C-1.106 6.248 -1.106 6.248 -1.114 5.049 C-1 3 -1 3 0 0 Z " fill="#001049" transform="translate(697,550)"/>
<path d="M0 0 C4.417 4.417 5.714 6.374 6.375 12.438 C5.778 18.105 2.978 21.308 -1.25 24.875 C-2.158 25.576 -3.065 26.278 -4 27 C-4.33 26.34 -4.66 25.68 -5 25 C-4.34 25 -3.68 25 -3 25 C-2.67 22.69 -2.34 20.38 -2 18 C-1.34 18 -0.68 18 0 18 C0 12.06 0 6.12 0 0 Z " fill="#B8DFF2" transform="translate(293,519)"/>
<path d="M0 0 C11.65 0.713 23.67 4.981 32.703 12.398 C34 14 34 14 34 18 C32.062 17.188 32.062 17.188 30 16 C29.67 15.01 29.34 14.02 29 13 C28.051 12.897 27.102 12.794 26.125 12.688 C23 12 23 12 21 9 C18.941 8.276 18.941 8.276 17 8 C17 7.34 17 6.68 17 6 C16.072 6.227 15.144 6.454 14.188 6.688 C13.136 6.791 12.084 6.894 11 7 C9.978 6.022 8.98 5.019 8 4 C5.969 3.014 5.969 3.014 3.812 2.312 C3.097 2.061 2.382 1.81 1.645 1.551 C1.102 1.369 0.559 1.187 0 1 C0 0.67 0 0.34 0 0 Z " fill="#04164E" transform="translate(528,558)"/>
<path d="M0 0 C2.97 1.65 5.94 3.3 9 5 C9 5.99 9 6.98 9 8 C8.34 8 7.68 8 7 8 C7 7.34 7 6.68 7 6 C2.808 6.953 1.279 7.633 -1.375 11.125 C-1.911 12.074 -2.447 13.023 -3 14 C-1.793 14.65 -1.793 14.65 -0.562 15.312 C2 17 2 17 3 20 C-1.401 19.497 -3.712 17.912 -7 15 C-6.312 11.344 -4.746 8.481 -2.938 5.25 C-2.116 3.773 -2.116 3.773 -1.277 2.266 C-0.645 1.144 -0.645 1.144 0 0 Z " fill="#0C1B51" transform="translate(508,580)"/>
<path d="M0 0 C0.33 0 0.66 0 1 0 C1.33 8.25 1.66 16.5 2 25 C2.66 25 3.32 25 4 25 C4.33 25.66 4.66 26.32 5 27 C6.692 26.992 6.692 26.992 8.418 26.984 C12.682 26.966 16.947 26.954 21.211 26.945 C23.042 26.94 24.872 26.933 26.703 26.925 C38.183 26.871 49.551 27.102 61 28 C61 28.33 61 28.66 61 29 C53.49 29.069 45.979 29.123 38.469 29.155 C34.981 29.171 31.494 29.192 28.007 29.226 C23.998 29.265 19.989 29.28 15.98 29.293 C14.727 29.308 13.474 29.324 12.183 29.34 C11.022 29.34 9.861 29.34 8.665 29.341 C7.129 29.351 7.129 29.351 5.563 29.361 C3 29 3 29 1.167 27.649 C-0.608 25.141 -0.337 23.056 -0.293 20.02 C-0.283 18.856 -0.274 17.693 -0.264 16.494 C-0.226 14.672 -0.226 14.672 -0.188 12.812 C-0.174 11.586 -0.16 10.359 -0.146 9.096 C-0.111 6.063 -0.062 3.032 0 0 Z " fill="#00174F" transform="translate(448,450)"/>
<path d="M0 0 C0.66 -0.004 1.321 -0.007 2.001 -0.011 C4.188 -0.019 6.375 -0.014 8.562 -0.007 C10.079 -0.008 11.596 -0.01 13.113 -0.013 C16.294 -0.016 19.475 -0.011 22.656 -0.002 C26.739 0.009 30.821 0.003 34.904 -0.009 C38.036 -0.016 41.169 -0.014 44.302 -0.009 C45.808 -0.008 47.313 -0.009 48.819 -0.014 C50.921 -0.019 53.023 -0.011 55.125 0 C56.921 0.002 56.921 0.002 58.754 0.005 C61.562 0.259 61.562 0.259 63.562 2.259 C63.688 5.384 63.688 5.384 63.562 8.259 C62.903 8.589 62.243 8.919 61.562 9.259 C61.067 5.794 61.067 5.794 60.562 2.259 C52.122 2.189 43.682 2.136 35.241 2.103 C31.322 2.088 27.403 2.066 23.484 2.032 C19.704 2 15.924 1.982 12.144 1.974 C10.7 1.969 9.256 1.958 7.812 1.942 C5.793 1.92 3.775 1.919 1.756 1.918 C0.606 1.912 -0.544 1.905 -1.729 1.898 C-2.623 2.017 -3.517 2.136 -4.438 2.259 C-6.184 4.878 -6.825 6.297 -7.438 9.259 C-8.438 8.259 -8.438 8.259 -8.625 5.321 C-8.265 -0.564 -5.056 0.007 0 0 Z " fill="#10215A" transform="translate(481.4375,404.7412109375)"/>
<path d="M0 0 C0.33 0 0.66 0 1 0 C1.004 0.793 1.007 1.586 1.011 2.403 C1.049 9.878 1.106 17.352 1.184 24.826 C1.223 28.669 1.256 32.512 1.271 36.354 C1.286 40.064 1.321 43.772 1.368 47.481 C1.383 48.895 1.391 50.31 1.392 51.725 C1.394 53.707 1.424 55.689 1.454 57.671 C1.467 59.363 1.467 59.363 1.481 61.089 C2.11 64.618 3.362 65.68 6 68 C6 68.66 6 69.32 6 70 C6.66 70 7.32 70 8 70 C7.67 71.32 7.34 72.64 7 74 C4.023 72.041 1.929 70.01 0 67 C-0.991 61.889 -0.817 56.837 -0.684 51.66 C-0.671 50.168 -0.661 48.676 -0.654 47.184 C-0.627 43.275 -0.558 39.368 -0.481 35.461 C-0.409 31.466 -0.377 27.47 -0.342 23.475 C-0.267 15.649 -0.148 7.825 0 0 Z " fill="#00215D" transform="translate(569,355)"/>
<path d="M0 0 C6.6 0 13.2 0 20 0 C20 4.95 20 9.9 20 15 C13.73 15 7.46 15 1 15 C1.33 14.34 1.66 13.68 2 13 C6.95 13 11.9 13 17 13 C17.33 9.37 17.66 5.74 18 2 C12.06 1.67 6.12 1.34 0 1 C0 0.67 0 0.34 0 0 Z " fill="#042258" transform="translate(698,535)"/>
<path d="M0 0 C-1.586 3.856 -4.065 6.332 -7 9.25 C-7.887 10.142 -8.774 11.034 -9.688 11.953 C-12 14 -12 14 -14 14 C-14.255 14.583 -14.51 15.165 -14.773 15.766 C-16.117 18.214 -17.618 19.817 -19.625 21.75 C-20.572 22.67 -20.572 22.67 -21.539 23.609 C-22.021 24.068 -22.503 24.527 -23 25 C-23.99 24.34 -24.98 23.68 -26 23 C-23.499 19.249 -20.702 17.02 -17 14.562 C-12.891 11.789 -10.534 9.316 -8 5 C-3.543 0 -3.543 0 0 0 Z " fill="#0A2A61" transform="translate(430,372)"/>
<path d="M0 0 C0.99 0 1.98 0 3 0 C2.67 3.3 2.34 6.6 2 10 C0.68 10.33 -0.64 10.66 -2 11 C-2.66 14.63 -3.32 18.26 -4 22 C-2.948 21.505 -1.896 21.01 -0.812 20.5 C2.255 19.172 4.621 18.693 8 19 C4.203 21.532 0.933 23.322 -3.695 22.551 C-4.456 22.369 -5.216 22.187 -6 22 C-3.618 3.618 -3.618 3.618 0 0 Z " fill="#162957" transform="translate(532,454)"/>
<path d="M0 0 C-0.33 0.99 -0.66 1.98 -1 3 C-1.99 3.392 -2.98 3.784 -4 4.188 C-9.905 6.542 -15.409 10.758 -18.238 16.523 C-18.955 18.676 -19.552 20.778 -20 23 C-20.66 23 -21.32 23 -22 23 C-21.642 16.021 -17.74 10.777 -12.965 5.938 C-4.628 -1.543 -4.628 -1.543 0 0 Z " fill="#08285E" transform="translate(441,535)"/>
<path d="M0 0 C0.99 0.66 1.98 1.32 3 2 C2.567 2.773 2.567 2.773 2.125 3.562 C0.712 6.624 -0.125 9.749 -1 13 C-3.64 13 -6.28 13 -9 13 C-9.33 13.66 -9.66 14.32 -10 15 C-9.532 10.281 -7.651 8.082 -4.438 4.688 C-3.611 3.804 -2.785 2.921 -1.934 2.012 C-1.296 1.348 -0.657 0.684 0 0 Z " fill="#E6EEF5" transform="translate(565,449)"/>
<path d="M0 0 C2 1 2 1 3.07 4.16 C3.43 5.459 3.781 6.76 4.125 8.062 C4.307 8.726 4.489 9.389 4.676 10.072 C5.124 11.713 5.563 13.356 6 15 C2.7 15 -0.6 15 -4 15 C-3.522 13.062 -3.043 11.125 -2.562 9.188 C-2.296 8.109 -2.029 7.03 -1.754 5.918 C-1.239 3.926 -0.651 1.952 0 0 Z " fill="#E3ECF2" transform="translate(488,649)"/>
<path d="M0 0 C1.959 -0.031 1.959 -0.031 3.957 -0.062 C5.206 -0.068 6.455 -0.073 7.742 -0.078 C9.469 -0.092 9.469 -0.092 11.23 -0.106 C14.125 0.25 14.125 0.25 16.012 1.603 C17.541 3.865 17.341 5.583 17.125 8.25 C15.145 9.24 15.145 9.24 13.125 10.25 C13.125 9.59 13.125 8.93 13.125 8.25 C13.785 8.25 14.445 8.25 15.125 8.25 C15.125 6.6 15.125 4.95 15.125 3.25 C14.287 3.26 13.45 3.271 12.586 3.282 C9.482 3.316 6.377 3.341 3.272 3.36 C1.266 3.375 -0.74 3.4 -2.746 3.426 C-4.003 3.432 -5.26 3.439 -6.555 3.445 C-7.717 3.456 -8.88 3.466 -10.078 3.477 C-12.875 3.25 -12.875 3.25 -14.875 1.25 C-12.114 -1.511 -3.722 0.015 0 0 Z " fill="#1C2E61" transform="translate(488.875,430.75)"/>
<path d="M0 0 C3.63 0 7.26 0 11 0 C10.34 1.65 9.68 3.3 9 5 C8.01 5 7.02 5 6 5 C5.67 5.99 5.34 6.98 5 8 C3.35 8.33 1.7 8.66 0 9 C0 6.03 0 3.06 0 0 Z " fill="#90CEF2" transform="translate(238,512)"/>
<path d="M0 0 C0.66 0.33 1.32 0.66 2 1 C2 10.57 2 20.14 2 30 C1.01 30 0.02 30 -1 30 C-1.108 19.934 -0.977 10.029 0 0 Z " fill="#0E2D56" transform="translate(509,648)"/>
<path d="M0 0 C2.692 4.039 3.936 8.388 5.488 12.969 C7.224 16.45 8.607 17.263 12 19 C12.99 20.299 12.99 20.299 14 21.625 C15.812 24.219 15.812 24.219 18.75 24.812 C19.864 24.905 19.864 24.905 21 25 C21.33 25.99 21.66 26.98 22 28 C15.983 26.878 13.055 25.823 9 21 C8.154 20.092 7.309 19.185 6.438 18.25 C2.663 13.615 0.169 8.412 -0.25 2.438 C-0.168 1.633 -0.085 0.829 0 0 Z " fill="#081646" transform="translate(418,574)"/>
<path d="M0 0 C0.66 0.33 1.32 0.66 2 1 C2.682 12.918 0.881 21.875 -6.438 31.441 C-8.156 33.155 -9.784 34.04 -12 35 C-12 34.01 -12 33.02 -12 32 C-11.402 31.794 -10.804 31.587 -10.188 31.375 C-7.19 29.491 -6.386 27.189 -5 24 C-4.34 24 -3.68 24 -3 24 C-2.783 22.855 -2.783 22.855 -2.562 21.688 C-2 19 -2 19 -1 16 C-0.772 13.267 -0.583 10.55 -0.438 7.812 C-0.394 7.063 -0.351 6.313 -0.307 5.541 C-0.201 3.694 -0.1 1.847 0 0 Z " fill="#237DB9" transform="translate(316,532)"/>
<path d="M0 0 C8.25 0 16.5 0 25 0 C24.34 1.98 23.68 3.96 23 6 C22.01 6 21.02 6 20 6 C19.34 5.01 18.68 4.02 18 3 C15.064 2.616 12.32 2.396 9.375 2.312 C8.573 2.278 7.771 2.244 6.945 2.209 C4.964 2.126 2.982 2.062 1 2 C0.67 2.66 0.34 3.32 0 4 C0 2.68 0 1.36 0 0 Z " fill="#133261" transform="translate(780,532)"/>
<path d="M0 0 C0.66 0.33 1.32 0.66 2 1 C0.858 4.866 -0.172 8.063 -3 11 C-3.959 11.217 -3.959 11.217 -4.938 11.438 C-8.059 12.289 -9.138 14.455 -11 17 C-11.66 17.66 -12.32 18.32 -13 19 C-13.25 16.188 -13.25 16.188 -13 13 C-11.125 11.125 -11.125 11.125 -9 10 C-8.34 10 -7.68 10 -7 10 C-6.773 9.278 -6.546 8.556 -6.312 7.812 C-4.752 4.468 -2.697 2.484 0 0 Z " fill="#67B4E2" transform="translate(252,512)"/>
<path d="M0 0 C2.834 3.203 3.521 5.781 4 10 C-3.9 15.547 -11.862 13.955 -21 13 C-21 12.34 -21 11.68 -21 11 C-19.903 11.058 -18.806 11.116 -17.676 11.176 C-16.221 11.223 -14.767 11.268 -13.312 11.312 C-12.231 11.375 -12.231 11.375 -11.127 11.439 C-6.947 11.535 -5.439 11.339 -2 8.688 C0.368 5.506 0.451 3.876 0 0 Z " fill="#061853" transform="translate(620,592)"/>
<path d="M0 0 C0.66 0 1.32 0 2 0 C2.227 0.722 2.454 1.444 2.688 2.188 C4.769 6.648 7.953 9.302 12 12 C14.523 12.793 17.066 13.455 19.625 14.121 C22.118 15.044 23.301 15.993 25 18 C16.545 16.817 8.875 14.531 3 8 C1.104 5.155 0.297 3.368 0 0 Z " fill="#132152" transform="translate(505,558)"/>
<path d="M0 0 C3.047 4.571 4.399 9.685 6.125 14.875 C6.498 15.964 6.87 17.054 7.254 18.176 C7.606 19.229 7.958 20.282 8.32 21.367 C8.643 22.327 8.965 23.288 9.297 24.277 C9.994 26.976 10.136 29.227 10 32 C6.38 29.587 6.439 28.798 5.562 24.688 C4.269 18.975 2.609 13.469 0.77 7.91 C0.032 5.123 -0.153 2.865 0 0 Z " fill="#192D65" transform="translate(753,546)"/>
<path d="M0 0 C0.66 0 1.32 0 2 0 C0.31 6.552 -2.02 12.802 -4.562 19.062 C-4.867 19.825 -5.172 20.587 -5.487 21.373 C-7.759 26.88 -7.759 26.88 -10 28 C-9.856 27.299 -9.711 26.597 -9.562 25.875 C-8.985 22.924 -8.483 19.967 -8 17 C-7.34 17 -6.68 17 -6 17 C-5.818 16.443 -5.636 15.886 -5.449 15.312 C-3.751 10.158 -1.936 5.07 0 0 Z " fill="#0C225A" transform="translate(787,570)"/>
<path d="M0 0 C6.93 0 13.86 0 21 0 C21 5.61 21 11.22 21 17 C20.67 17 20.34 17 20 17 C20 12.38 20 7.76 20 3 C16.466 1.822 13.597 1.867 9.875 1.875 C8.614 1.872 7.354 1.87 6.055 1.867 C3.125 1.65 3.125 1.65 2 3 C1.766 4.849 1.587 6.705 1.438 8.562 C1.354 9.574 1.27 10.586 1.184 11.629 C1.123 12.411 1.062 13.194 1 14 C0.67 14 0.34 14 0 14 C0 9.38 0 4.76 0 0 Z " fill="#00255B" transform="translate(583,517)"/>
<path d="M0 0 C0.99 0 1.98 0 3 0 C2.67 0.99 2.34 1.98 2 3 C1.01 3.33 0.02 3.66 -1 4 C-0.67 2.68 -0.34 1.36 0 0 Z M-5 5 C-4.01 5.33 -3.02 5.66 -2 6 C-2.688 7.812 -2.688 7.812 -4 10 C-5.299 10.557 -5.299 10.557 -6.625 11.125 C-9.251 12.751 -9.251 12.751 -9.324 15.41 C-9.313 17.957 -9.214 20.463 -9 23 C-9.66 23.33 -10.32 23.66 -11 24 C-11 19.05 -11 14.1 -11 9 C-9.35 8.34 -7.7 7.68 -6 7 C-5.67 6.34 -5.34 5.68 -5 5 Z " fill="#7BC1EC" transform="translate(249,512)"/>
<path d="M0 0 C0.66 0 1.32 0 2 0 C2.433 1.052 2.866 2.104 3.312 3.188 C4.651 6.293 6.059 9.215 8 12 C8.66 12 9.32 12 10 12 C10.33 12.99 10.66 13.98 11 15 C10.01 15.33 9.02 15.66 8 16 C3.8 13.375 1.75 10.605 0 6 C-0.188 2.625 -0.188 2.625 0 0 Z " fill="#0C1950" transform="translate(583,587)"/>
<path d="M0 0 C2.64 0 5.28 0 8 0 C6 2 6 2 3 3 C2.67 6.3 2.34 9.6 2 13 C3.98 13 5.96 13 8 13 C8 13.66 8 14.32 8 15 C5.36 15 2.72 15 0 15 C0 10.05 0 5.1 0 0 Z " fill="#052358" transform="translate(667,535)"/>
<path d="M0 0 C2.97 1.32 5.94 2.64 9 4 C7.634 7.542 6.091 10.926 4.375 14.312 C3.929 15.196 3.483 16.079 3.023 16.988 C2.517 17.984 2.517 17.984 2 19 C-1.683 18.379 -3.577 17.933 -6 15 C-3.69 15 -1.38 15 1 15 C4.237 9.798 4.237 9.798 6 4 C4.02 3.34 2.04 2.68 0 2 C0 1.34 0 0.68 0 0 Z " fill="#1A2D5A" transform="translate(556,535)"/>
<path d="M0 0 C6.957 3.975 12.307 10.397 15 18 C14.939 20.783 14.522 23.247 14 26 C13.67 26 13.34 26 13 26 C12.89 25.348 12.781 24.695 12.668 24.023 C11.179 15.814 9.062 10.899 3 5 C3 4.34 3 3.68 3 3 C2.01 2.67 1.02 2.34 0 2 C0 1.34 0 0.68 0 0 Z " fill="#0D2155" transform="translate(479,537)"/>
<path d="M0 0 C0.66 0 1.32 0 2 0 C5.15 6.984 6.181 12.717 6.188 20.438 C6.2 21.175 6.212 21.913 6.225 22.674 C6.237 27.178 5.702 30.756 4 35 C3.34 35 2.68 35 2 35 C2.33 33.783 2.66 32.566 3 31.312 C4.878 22.734 5.022 14.127 1.754 5.902 C0.983 3.957 0.467 2.037 0 0 Z " fill="#D9F5FC" transform="translate(313,520)"/>
<path d="M0 0 C2.051 2.051 2.641 3.27 3.625 5.938 C3.885 6.627 4.146 7.317 4.414 8.027 C5 10 5 10 5 13 C3.35 13 1.7 13 0 13 C-1.193 9.123 -2 6.084 -2 2 C-1.34 2 -0.68 2 0 2 C0 1.34 0 0.68 0 0 Z " fill="#1F3C5F" transform="translate(498,665)"/>
<path d="M0 0 C1.172 3.517 0.813 4.118 -0.582 7.414 C-0.937 8.257 -1.292 9.1 -1.658 9.969 C-2.039 10.845 -2.42 11.722 -2.812 12.625 C-3.366 13.951 -3.366 13.951 -3.932 15.305 C-6.735 21.867 -6.735 21.867 -9 23 C-7.555 14.782 -3.815 7.357 0 0 Z " fill="#0A1754" transform="translate(774,604)"/>
<path d="M0 0 C0 0.66 0 1.32 0 2 C-3.843 3.28 -7.622 3.033 -11.609 2.879 C-12.7 2.843 -12.7 2.843 -13.812 2.807 C-16.125 2.731 -18.437 2.647 -20.75 2.562 C-22.322 2.509 -23.893 2.457 -25.465 2.404 C-29.31 2.275 -33.155 2.14 -37 2 C-37 1.67 -37 1.34 -37 1 C-24.692 -0.346 -12.362 -0.098 0 0 Z " fill="#237ABC" transform="translate(276,551)"/>
<path d="M0 0 C12.329 2.329 12.329 2.329 17 7 C17.414 9.82 17.414 9.82 17.625 13.125 C17.7 14.221 17.775 15.316 17.852 16.445 C17.901 17.288 17.95 18.131 18 19 C15.938 16.812 15.938 16.812 14 14 C14.312 11.375 14.312 11.375 15 9 C14.67 8.01 14.34 7.02 14 6 C12.072 5.045 12.072 5.045 9.75 4.438 C8.942 4.193 8.134 3.948 7.301 3.695 C6.542 3.466 5.782 3.236 5 3 C3.326 2.351 1.655 1.694 0 1 C0 0.67 0 0.34 0 0 Z " fill="#BEE6F7" transform="translate(276,512)"/>
<path d="M0 0 C-4.75 5.875 -4.75 5.875 -7 7 C-8.54 7.07 -10.083 7.085 -11.625 7.062 C-12.851 7.049 -12.851 7.049 -14.102 7.035 C-15.041 7.018 -15.041 7.018 -16 7 C-16 6.34 -16 5.68 -16 5 C-11.545 4.505 -11.545 4.505 -7 4 C-6.67 2.68 -6.34 1.36 -6 0 C-3.509 -1.245 -2.589 -0.777 0 0 Z " fill="#093164" transform="translate(657,518)"/>
<path d="M0 0 C0.66 0.99 1.32 1.98 2 3 C-1.382 6.842 -5.159 8.973 -9.625 11.312 C-10.306 11.684 -10.986 12.056 -11.688 12.439 C-13.424 13.361 -15.209 14.189 -17 15 C-17.66 14.67 -18.32 14.34 -19 14 C-17.344 10.687 -13.801 10.306 -10.445 9.098 C-8 8 -6.818 6.908 -5 5 C-2.312 4.312 -2.312 4.312 0 4 C0 2.68 0 1.36 0 0 Z " fill="#3689BC" transform="translate(284,530)"/>
<path d="M0 0 C-3.65 3.65 -8.456 3.944 -13.418 4.125 C-16.614 4.125 -19.805 4.088 -23 4 C-16.68 -0.214 -7.487 -0.348 0 0 Z " fill="#03134D" transform="translate(552,602)"/>
<path d="M0 0 C0.33 0 0.66 0 1 0 C2.645 5.832 1.077 9.516 -1 15 C2.3 15 5.6 15 9 15 C9 15.33 9 15.66 9 16 C5.37 16 1.74 16 -2 16 C-3.272 9.526 -2.689 6.023 0 0 Z " fill="#384F66" transform="translate(485,649)"/>
<path d="M0 0 C0.66 0 1.32 0 2 0 C1.794 0.577 1.587 1.155 1.375 1.75 C0.897 4.619 1.382 5.611 3 8 C5.172 8.912 5.172 8.912 7.625 9.25 C8.442 9.4 9.26 9.549 10.102 9.703 C10.728 9.801 11.355 9.899 12 10 C11.01 10.66 10.02 11.32 9 12 C4.326 10.961 0.866 8.762 -3 6 C-1.125 1.125 -1.125 1.125 0 0 Z " fill="#081954" transform="translate(726,623)"/>
<path d="M0 0 C2 1 2 1 2.781 2.777 C3.018 3.49 3.256 4.203 3.5 4.938 C4.424 7.705 4.891 8.891 7 11 C4.36 11 1.72 11 -1 11 C-1.143 3.571 -1.143 3.571 0 0 Z " fill="#9DD7F3" transform="translate(239,540)"/>
<path d="M0 0 C4.484 -0.124 8.967 -0.214 13.452 -0.275 C14.977 -0.3 16.502 -0.334 18.026 -0.377 C20.221 -0.438 22.414 -0.466 24.609 -0.488 C25.929 -0.514 27.249 -0.541 28.608 -0.568 C32 0 32 0 34.462 2.531 C35.223 3.753 35.223 3.753 36 5 C35.01 5 34.02 5 33 5 C32.34 3.68 31.68 2.36 31 1 C20.77 1 10.54 1 0 1 C0 0.67 0 0.34 0 0 Z " fill="#042A60" transform="translate(510,308)"/>
<path d="M0 0 C5.661 4.698 10.852 9.747 16 15 C15.34 15.66 14.68 16.32 14 17 C12.5 15.625 12.5 15.625 11 14 C11 13.34 11 12.68 11 12 C10.299 11.835 9.597 11.67 8.875 11.5 C4.733 9.339 2.4 5.959 0 2 C0 1.34 0 0.68 0 0 Z " fill="#0D285B" transform="translate(550,318)"/>
<path d="M0 0 C2.97 0.495 2.97 0.495 6 1 C6 1.66 6 2.32 6 3 C10.95 3 15.9 3 21 3 C18.457 5.543 17.464 5.298 13.938 5.312 C8.503 5.234 3.996 4.072 -1 2 C-0.67 1.34 -0.34 0.68 0 0 Z " fill="#1F2C5D" transform="translate(593,602)"/>
<path d="M0 0 C0.66 0.33 1.32 0.66 2 1 C1.67 1.33 1.34 1.66 1 2 C5.29 2.33 9.58 2.66 14 3 C14 3.33 14 3.66 14 4 C6.982 5.101 0.094 5.097 -7 5 C-4.808 2.727 -2.979 1.153 0 0 Z " fill="#C8EAF9" transform="translate(262,547)"/>
<path d="M0 0 C4.29 3.861 5.808 6.806 6.312 12.562 C5.977 16.253 5.284 17.246 3 20 C2.927 18.463 2.927 18.463 2.852 16.895 C2.776 15.534 2.701 14.173 2.625 12.812 C2.579 11.802 2.579 11.802 2.531 10.771 C2.299 6.803 1.716 3.593 0 0 Z " fill="#81C4E9" transform="translate(293,519)"/>
<path d="M0 0 C0 0.99 0 1.98 0 3 C-0.66 3 -1.32 3 -2 3 C-2 2.34 -2 1.68 -2 1 C-6.993 2.277 -9.576 4.173 -13 8 C-11.941 4.597 -10.991 1.986 -9 -1 C-5.279 -2.273 -3.318 -2.089 0 0 Z " fill="#041858" transform="translate(517,585)"/>
<path d="M0 0 C0.66 0 1.32 0 2 0 C2.709 10.428 3.351 20.588 2 31 C1.67 31 1.34 31 1 31 C0.238 20.643 -0.134 10.386 0 0 Z " fill="#17365F" transform="translate(510,647)"/>
<path d="M0 0 C0.905 0.023 1.81 0.046 2.742 0.07 C4.107 0.097 4.107 0.097 5.5 0.125 C6.199 0.148 6.897 0.171 7.617 0.195 C6.627 1.68 6.627 1.68 5.617 3.195 C1.992 3.883 1.992 3.883 -1.383 4.195 C-1.713 8.485 -2.043 12.775 -2.383 17.195 C-2.713 17.195 -3.043 17.195 -3.383 17.195 C-3.604 14.738 -3.81 12.28 -4.008 9.82 C-4.072 9.122 -4.137 8.423 -4.203 7.703 C-4.344 5.872 -4.37 4.032 -4.383 2.195 C-2.383 0.195 -2.383 0.195 0 0 Z " fill="#324966" transform="translate(511.3828125,643.8046875)"/>
<path d="M0 0 C1.65 0 3.3 0 5 0 C4.01 0.33 3.02 0.66 2 1 C2 5.29 2 9.58 2 14 C3.65 14 5.3 14 7 14 C7 14.33 7 14.66 7 15 C4.69 15.33 2.38 15.66 0 16 C0 10.72 0 5.44 0 0 Z " fill="#2E4874" transform="translate(572,533)"/>
<path d="M0 0 C2.939 0.617 5.876 1.243 8.812 1.875 C9.646 2.049 10.479 2.223 11.338 2.402 C12.14 2.576 12.943 2.75 13.77 2.93 C14.877 3.165 14.877 3.165 16.007 3.406 C18 4 18 4 21 6 C19.02 6.99 19.02 6.99 17 8 C16.67 7.01 16.34 6.02 16 5 C15.264 4.951 14.528 4.902 13.77 4.852 C12.794 4.777 11.818 4.702 10.812 4.625 C9.85 4.555 8.887 4.486 7.895 4.414 C4.985 3.998 2.671 3.201 0 2 C0 1.34 0 0.68 0 0 Z " fill="#041250" transform="translate(518,586)"/>
<path d="M0 0 C-3.162 2.108 -3.746 2.216 -7.312 2.062 C-10.23 1.977 -12.417 2.087 -15.312 2.688 C-18 3 -18 3 -20.168 1.52 C-20.773 1.018 -21.377 0.517 -22 0 C-19.084 -0.195 -16.167 -0.381 -13.25 -0.562 C-12.012 -0.647 -12.012 -0.647 -10.75 -0.732 C-9.951 -0.781 -9.152 -0.829 -8.328 -0.879 C-7.595 -0.926 -6.862 -0.973 -6.106 -1.022 C-3.916 -0.999 -2.095 -0.615 0 0 Z " fill="#02225B" transform="translate(379,556)"/>
<path d="M0 0 C0.66 0.33 1.32 0.66 2 1 C1.169 1.961 1.169 1.961 0.32 2.941 C-3.786 7.844 -6.894 11.642 -8 18 C-8.66 18 -9.32 18 -10 18 C-9.63 10.789 -5.122 4.831 0 0 Z " fill="#0A1F54" transform="translate(429,540)"/>
<path d="M0 0 C3.176 2.9 3.94 4.944 4.188 9.312 C4.004 12.93 3.31 15.644 2 19 C0.35 19.33 -1.3 19.66 -3 20 C-2.34 19.216 -1.68 18.433 -1 17.625 C1.859 13.382 1.497 8.933 1 4 C0.698 2.659 0.375 1.322 0 0 Z " fill="#05295B" transform="translate(384,534)"/>
<path d="M0 0 C0.99 0 1.98 0 3 0 C1.236 3.751 -0.939 7.235 -3.125 10.75 C-3.498 11.352 -3.87 11.954 -4.254 12.574 C-5.168 14.05 -6.084 15.525 -7 17 C-7.99 16.67 -8.98 16.34 -10 16 C-10 15.34 -10 14.68 -10 14 C-9.01 14 -8.02 14 -7 14 C-6.753 13.319 -6.505 12.639 -6.25 11.938 C-4.757 8.43 -2.925 5.291 -1 2 C-0.67 1.34 -0.34 0.68 0 0 Z " fill="#18335F" transform="translate(724,507)"/>
<path d="M0 0 C0.99 0.495 0.99 0.495 2 1 C1.67 1.66 1.34 2.32 1 3 C1.99 3 2.98 3 4 3 C4.33 4.98 4.66 6.96 5 9 C5.66 9 6.32 9 7 9 C7 10.32 7 11.64 7 13 C6.01 13 5.02 13 4 13 C-0.592 4.738 -0.592 4.738 0 0 Z " fill="#79BCE3" transform="translate(243,537)"/>
<path d="M0 0 C0.702 0.005 1.404 0.009 2.127 0.014 C3.856 0.025 5.584 0.043 7.312 0.062 C7.312 0.393 7.312 0.722 7.312 1.062 C-0.607 2.548 -0.607 2.548 -8.688 4.062 C-9.347 3.072 -10.008 2.082 -10.688 1.062 C-7.069 -0.144 -3.762 -0.046 0 0 Z " fill="#102E60" transform="translate(531.6875,530.9375)"/>
<path d="M0 0 C2.339 2.127 3.807 4.062 5 7 C5 7.99 5 8.98 5 10 C1.086 8.731 -0.791 7.488 -3 4 C-2.34 3.67 -1.68 3.34 -1 3 C-0.67 2.01 -0.34 1.02 0 0 Z " fill="#172852" transform="translate(574,469)"/>
<path d="M0 0 C0.949 0.041 1.897 0.082 2.875 0.125 C2.875 0.455 2.875 0.785 2.875 1.125 C1.225 1.455 -0.425 1.785 -2.125 2.125 C-2.125 3.775 -2.125 5.425 -2.125 7.125 C1.175 7.455 4.475 7.785 7.875 8.125 C7.875 8.455 7.875 8.785 7.875 9.125 C5.917 9.206 3.959 9.264 2 9.312 C0.909 9.347 -0.181 9.382 -1.305 9.418 C-2.235 9.321 -3.166 9.225 -4.125 9.125 C-6.125 6.125 -6.125 6.125 -5.875 4.062 C-4.563 0.673 -3.633 0.145 0 0 Z " fill="#0E1B4D" transform="translate(478.125,378.875)"/>
<path d="M0 0 C5.494 2.699 5.494 2.699 6.875 6.25 C6.916 6.827 6.957 7.405 7 8 C4.5 6.625 4.5 6.625 2 5 C2 4.34 2 3.68 2 3 C1.325 2.939 0.649 2.879 -0.047 2.816 C-1.385 2.691 -1.385 2.691 -2.75 2.562 C-3.632 2.481 -4.513 2.4 -5.422 2.316 C-7.694 2.038 -9.799 1.612 -12 1 C-8.29 -0.855 -4.049 -0.453 0 0 Z " fill="#183863" transform="translate(649,499)"/>
<path d="M0 0 C0.99 0 1.98 0 3 0 C2.67 2.64 2.34 5.28 2 8 C3.65 8.33 5.3 8.66 7 9 C4 11 4 11 0 11 C0 7.37 0 3.74 0 0 Z " fill="#18406B" transform="translate(584,438)"/>
<path d="M0 0 C0.33 0.66 0.66 1.32 1 2 C0.091 3.276 -0.828 4.546 -1.75 5.812 C-2.26 6.52 -2.771 7.228 -3.297 7.957 C-5.025 10.03 -6.785 11.474 -9 13 C-9 12.01 -9 11.02 -9 10 C-8.34 10 -7.68 10 -7 10 C-6.34 8.02 -5.68 6.04 -5 4 C-4.34 4 -3.68 4 -3 4 C-3 3.34 -3 2.68 -3 2 C-2.01 1.34 -1.02 0.68 0 0 Z " fill="#0C1E56" transform="translate(490,586)"/>
<path d="M0 0 C1.65 0.99 3.3 1.98 5 3 C5 3.33 5 3.66 5 4 C3.35 4 1.7 4 0 4 C-0.433 5.145 -0.433 5.145 -0.875 6.312 C-2 9 -2 9 -4 12 C-4.66 11.67 -5.32 11.34 -6 11 C-4.02 7.37 -2.04 3.74 0 0 Z " fill="#0C1546" transform="translate(508,580)"/>
<path d="M0 0 C7.755 -0.099 15.311 -0.061 23 1 C23 1.33 23 1.66 23 2 C19.918 2.227 16.834 2.428 13.75 2.625 C12.877 2.689 12.005 2.754 11.105 2.82 C10.261 2.872 9.417 2.923 8.547 2.977 C7.772 3.029 6.997 3.081 6.198 3.135 C3.692 2.981 2.152 2.256 0 1 C0 0.67 0 0.34 0 0 Z " fill="#091B5D" transform="translate(441,603)"/>
<path d="M0 0 C2.401 2.881 4.473 5.564 6 9 C6.66 9 7.32 9 8 9 C7.67 10.32 7.34 11.64 7 13 C0.138 7.083 0.138 7.083 -0.438 2.562 C-0.293 1.717 -0.149 0.871 0 0 Z " fill="#021C51" transform="translate(569,416)"/>
<path d="M0 0 C0.33 2.64 0.66 5.28 1 8 C-0.32 6.35 -1.64 4.7 -3 3 C-4.114 3.309 -4.114 3.309 -5.25 3.625 C-8.323 4.044 -9.428 3.619 -12 2 C-10.763 1.67 -9.525 1.34 -8.25 1 C-7.554 0.814 -6.858 0.629 -6.141 0.438 C-4 0 -4 0 0 0 Z " fill="#212D5E" transform="translate(621,586)"/>
<path d="M0 0 C1.481 2.702 2.02 4.215 2.312 7.375 C3.188 11.993 4.806 13.642 8 17 C5.026 16.116 3.287 15.317 1.188 13 C-0.526 8.672 -0.241 4.597 0 0 Z " fill="#153465" transform="translate(631,507)"/>
<path d="M0 0 C2.051 0.033 4.102 0.065 6.152 0.098 C5.104 2.72 4.503 3.891 2.027 5.348 C1.409 5.595 0.79 5.843 0.152 6.098 C0.029 5.458 -0.095 4.819 -0.223 4.16 C-0.532 3.139 -0.532 3.139 -0.848 2.098 C-1.508 1.768 -2.168 1.438 -2.848 1.098 C-1.848 0.098 -1.848 0.098 0 0 Z " fill="#1B3261" transform="translate(576.84765625,459.90234375)"/>
<path d="M0 0 C0.66 0 1.32 0 2 0 C1.125 6.75 1.125 6.75 0 9 C-1.32 9 -2.64 9 -4 9 C-2.941 5.597 -1.991 2.986 0 0 Z " fill="#182D4F" transform="translate(479,669)"/>
<path d="M0 0 C0.33 0 0.66 0 1 0 C1 1.98 1 3.96 1 6 C-4.94 6 -10.88 6 -17 6 C-17 5.67 -17 5.34 -17 5 C-15.645 4.909 -15.645 4.909 -14.262 4.816 C-13.082 4.733 -11.903 4.649 -10.688 4.562 C-8.93 4.441 -8.93 4.441 -7.137 4.316 C-3.974 4.113 -3.974 4.113 -1 3 C-0.67 2.01 -0.34 1.02 0 0 Z " fill="#001558" transform="translate(696,598)"/>
<path d="M0 0 C2.915 1.074 4.778 1.778 7 4 C9.571 4.648 9.571 4.648 12 5 C12.33 5.99 12.66 6.98 13 8 C7.056 6.892 3.979 5.849 0 1 C0 0.67 0 0.34 0 0 Z " fill="#0D1E56" transform="translate(427,594)"/>
<path d="M0 0 C-5.731 3.595 -10.21 5.63 -17 6 C-14.396 4.264 -11.83 2.765 -9.062 1.312 C-8.208 0.855 -7.353 0.397 -6.473 -0.074 C-3.759 -1.09 -2.66 -1.018 0 0 Z " fill="#156BB0" transform="translate(303,569)"/>
<path d="M0 0 C0.99 0 1.98 0 3 0 C2.443 3.344 1.648 6.033 0 9 C-0.66 9 -1.32 9 -2 9 C-2.125 5.625 -2.125 5.625 -2 2 C-1.34 1.34 -0.68 0.68 0 0 Z " fill="#10264D" transform="translate(532,454)"/>
<path d="M0 0 C0.66 0.33 1.32 0.66 2 1 C1.01 2.485 1.01 2.485 0 4 C-0.66 4 -1.32 4 -2 4 C-2.268 4.619 -2.536 5.237 -2.812 5.875 C-4 8 -4 8 -7 10 C-7 9.34 -7 8.68 -7 8 C-7.99 7.67 -8.98 7.34 -10 7 C-9.446 6.662 -8.891 6.325 -8.32 5.977 C-7.596 5.531 -6.871 5.085 -6.125 4.625 C-5.046 3.964 -5.046 3.964 -3.945 3.289 C-1.882 2.015 -1.882 2.015 0 0 Z " fill="#2986C2" transform="translate(295,540)"/>
<path d="M0 0 C0.99 0.33 1.98 0.66 3 1 C0.61 4.243 -1.205 6.509 -5 8 C-5.33 6.35 -5.66 4.7 -6 3 C-5.196 2.691 -4.391 2.381 -3.562 2.062 C-1.109 1.237 -1.109 1.237 0 0 Z " fill="#132856" transform="translate(546,465)"/>
<path d="M0 0 C3.136 0.306 4.57 0.479 6.617 2.961 C7.24 4.156 7.24 4.156 7.875 5.375 C8.306 6.166 8.736 6.958 9.18 7.773 C10 10 10 10 9 13 C8.206 11.751 7.415 10.501 6.625 9.25 C5.964 8.206 5.964 8.206 5.289 7.141 C4 5 4 5 2.961 2.797 C2.128 0.823 2.128 0.823 0 0 Z " fill="#062257" transform="translate(463,549)"/>
<path d="M0 0 C1.903 2.855 2.462 4.419 3.125 7.688 C3.293 8.496 3.46 9.304 3.633 10.137 C3.754 10.752 3.875 11.366 4 12 C3.01 12 2.02 12 1 12 C0.67 9.36 0.34 6.72 0 4 C-0.99 4.33 -1.98 4.66 -3 5 C-3 3 -3 3 -1.5 1.375 C-1.005 0.921 -0.51 0.467 0 0 Z " fill="#2C436E" transform="translate(493,650)"/>
<path d="M0 0 C0.33 1.32 0.66 2.64 1 4 C-1.417 5.949 -3.187 7.008 -6.336 6.977 C-8.574 6.715 -10.783 6.401 -13 6 C-13 5.67 -13 5.34 -13 5 C-12.095 4.961 -12.095 4.961 -11.172 4.922 C-5.895 4.597 -5.895 4.597 -1.438 1.938 C-0.963 1.298 -0.489 0.659 0 0 Z " fill="#1D2A62" transform="translate(544,584)"/>
<path d="M0 0 C1.65 0 3.3 0 5 0 C2.634 2.739 0.451 3.932 -3 5 C-5.812 5.125 -5.812 5.125 -8 5 C-8 4.34 -8 3.68 -8 3 C-5.36 2.67 -2.72 2.34 0 2 C0 1.34 0 0.68 0 0 Z " fill="#092059" transform="translate(392,569)"/>
<path d="M0 0 C0.66 0.33 1.32 0.66 2 1 C0.728 5.974 -1.086 8.673 -5 12 C-5.66 12 -6.32 12 -7 12 C-6.188 10.062 -6.188 10.062 -5 8 C-4.01 7.67 -3.02 7.34 -2 7 C-0.77 3.488 -0.77 3.488 0 0 Z " fill="#04215B" transform="translate(405,556)"/>
<path d="M0 0 C4.431 1.208 6.981 2.517 10 6 C8.35 6.66 6.7 7.32 5 8 C4.918 7.423 4.835 6.845 4.75 6.25 C3.795 3.384 2.215 2.001 0 0 Z " fill="#2776A8" transform="translate(280,526)"/>
<path d="M0 0 C3.058 1.736 5.634 3.385 8 6 C7.34 7.32 6.68 8.64 6 10 C5.67 8.68 5.34 7.36 5 6 C4.01 6 3.02 6 2 6 C2 4.68 2 3.36 2 2 C1.34 2 0.68 2 0 2 C0 1.34 0 0.68 0 0 Z " fill="#EEE6AC" transform="translate(540,456)"/>
<path d="M0 0 C0.66 0 1.32 0 2 0 C2.731 1.977 3.394 3.981 4 6 C3.67 6.66 3.34 7.32 3 8 C4.32 8 5.64 8 7 8 C7 8.66 7 9.32 7 10 C5.35 9.67 3.7 9.34 2 9 C1.34 6.03 0.68 3.06 0 0 Z " fill="#19365E" transform="translate(491,654)"/>
<path d="M0 0 C0.33 1.32 0.66 2.64 1 4 C-3.648 6.399 -7.911 6.2 -13 6 C-13 5.34 -13 4.68 -13 4 C-11.783 4.082 -10.566 4.165 -9.312 4.25 C-5.834 4.275 -5.062 4.041 -2 2 C-1.34 1.34 -0.68 0.68 0 0 Z " fill="#040F4B" transform="translate(749,612)"/>
<path d="M0 0 C3.442 0.353 5.069 1.046 8 3 C8 3.66 8 4.32 8 5 C4.442 4.39 1.317 3.422 -2 2 C-1.34 1.34 -0.68 0.68 0 0 Z " fill="#16265E" transform="translate(511,599)"/>
<path d="M0 0 C0.66 0 1.32 0 2 0 C1.586 4.833 -0.464 6.827 -4 10 C-4.66 9.67 -5.32 9.34 -6 9 C-4.625 7 -4.625 7 -3 5 C-2.34 5 -1.68 5 -1 5 C-0.67 3.35 -0.34 1.7 0 0 Z " fill="#071750" transform="translate(561,590)"/>
<path d="M0 0 C0.66 0 1.32 0 2 0 C5.286 7.429 5.286 7.429 6 11 C5.34 11 4.68 11 4 11 C3.67 9.35 3.34 7.7 3 6 C2.01 6 1.02 6 0 6 C0 4.02 0 2.04 0 0 Z " fill="#031857" transform="translate(583,587)"/>
<path d="M0 0 C1 3 1 3 0.062 5.188 C-0.288 5.786 -0.639 6.384 -1 7 C-4.688 6.502 -6.605 5.899 -9 3 C-7.886 3.062 -6.773 3.124 -5.625 3.188 C-4.429 3.126 -3.232 3.064 -2 3 C-1.34 2.01 -0.68 1.02 0 0 Z " fill="#0D2258" transform="translate(559,547)"/>
<path d="M0 0 C-0.99 0.33 -1.98 0.66 -3 1 C-4.05 2.85 -4.05 2.85 -5 5 C-5.976 6.351 -6.97 7.689 -8 9 C-8 6.36 -8 3.72 -8 1 C-5.072 0.024 -3.044 -0.082 0 0 Z " fill="#002861" transform="translate(582,533)"/>
<path d="M0 0 C2.31 0 4.62 0 7 0 C5.384 2.041 3.714 4.041 2 6 C1.34 6 0.68 6 0 6 C0 4.02 0 2.04 0 0 Z " fill="#A7DBF5" transform="translate(239,513)"/>
<path d="M0 0 C0.33 1.32 0.66 2.64 1 4 C1.66 4 2.32 4 3 4 C3.33 3.34 3.66 2.68 4 2 C4.33 2.99 4.66 3.98 5 5 C3.68 5.33 2.36 5.66 1 6 C0.67 7.98 0.34 9.96 0 12 C-0.66 12 -1.32 12 -2 12 C-1 3.429 -1 3.429 0 0 Z " fill="#2B416A" transform="translate(529,459)"/>
<path d="M0 0 C2.64 0.33 5.28 0.66 8 1 C7.01 1.495 7.01 1.495 6 2 C5.348 4.025 5.348 4.025 5 6 C3.293 4.719 1.626 3.382 0 2 C0 1.34 0 0.68 0 0 Z " fill="#102F59" transform="translate(556,462)"/>
<path d="M0 0 C4.128 0.607 7.332 2.038 11 4 C7.591 5.136 6.997 4.867 3.812 3.562 C3.097 3.275 2.382 2.988 1.645 2.691 C1.102 2.463 0.559 2.235 0 2 C0 1.34 0 0.68 0 0 Z " fill="#071A4F" transform="translate(519,571)"/>
<path d="M0 0 C0.66 0.33 1.32 0.66 2 1 C1.375 3.375 1.375 3.375 0 6 C-3.125 7.312 -3.125 7.312 -6 8 C-4.557 4.634 -2.667 2.49 0 0 Z " fill="#71B7E6" transform="translate(252,512)"/>
<path d="M0 0 C0.99 0.33 1.98 0.66 3 1 C2.361 1.557 1.721 2.114 1.062 2.688 C-1.197 5.221 -1.631 6.683 -2 10 C-4 8 -4 8 -4.125 4.875 C-4.084 3.926 -4.043 2.978 -4 2 C-3.01 2 -2.02 2 -1 2 C-0.67 1.34 -0.34 0.68 0 0 Z " fill="#05326C" transform="translate(636,503)"/>
<path d="M0 0 C1.414 2.639 2.372 5.071 3 8 C1.35 8 -0.3 8 -2 8 C-2 6.68 -2 5.36 -2 4 C-1.34 4 -0.68 4 0 4 C0 2.68 0 1.36 0 0 Z " fill="#364B6A" transform="translate(500,670)"/>
<path d="M0 0 C2.31 0.33 4.62 0.66 7 1 C6.67 2.32 6.34 3.64 6 5 C5.34 5 4.68 5 4 5 C3.67 4.01 3.34 3.02 3 2 C2.01 3.32 1.02 4.64 0 6 C0 4.02 0 2.04 0 0 Z " fill="#122C4E" transform="translate(486,648)"/>
<path d="M0 0 C-1.62 0.864 -3.246 1.716 -4.875 2.562 C-6.232 3.276 -6.232 3.276 -7.617 4.004 C-8.404 4.333 -9.19 4.661 -10 5 C-10.66 4.67 -11.32 4.34 -12 4 C-9.759 -0.482 -4.442 -1.461 0 0 Z " fill="#478EB7" transform="translate(277,540)"/>
<path d="M0 0 C0.66 0 1.32 0 2 0 C2.312 2.812 2.312 2.812 2 6 C-0.5 7.875 -0.5 7.875 -3 9 C-3 8.34 -3 7.68 -3 7 C-2.34 7 -1.68 7 -1 7 C-0.67 4.69 -0.34 2.38 0 0 Z " fill="#C3E6F7" transform="translate(291,537)"/>
<path d="M0 0 C4.084 0.743 8.019 1.829 12 3 C12 3.33 12 3.66 12 4 C10.561 3.913 9.124 3.804 7.688 3.688 C6.887 3.629 6.086 3.571 5.262 3.512 C2.637 2.918 1.692 2.042 0 0 Z " fill="#142D60" transform="translate(421,446)"/>
<path d="M0 0 C1.32 0.33 2.64 0.66 4 1 C4.33 2.98 4.66 4.96 5 7 C4.01 7.66 3.02 8.32 2 9 C2 6.36 2 3.72 2 1 C1.34 0.67 0.68 0.34 0 0 Z " fill="#222E5B" transform="translate(541,379)"/>
<path d="M0 0 C3.871 0.574 6.082 2.487 9 5 C7.35 5.33 5.7 5.66 4 6 C0 1.125 0 1.125 0 0 Z " fill="#122B5D" transform="translate(534,347)"/>
<path d="M0 0 C0.66 0.33 1.32 0.66 2 1 C0.515 4.96 0.515 4.96 -1 9 C-1.66 8.67 -2.32 8.34 -3 8 C-3 6.35 -3 4.7 -3 3 C-2.01 2.67 -1.02 2.34 0 2 C0 1.34 0 0.68 0 0 Z " fill="#0A2E64" transform="translate(800,539)"/>
<path d="M0 0 C0.33 0.66 0.66 1.32 1 2 C-0.375 4 -0.375 4 -2 6 C-2.66 6 -3.32 6 -4 6 C-4 6.66 -4 7.32 -4 8 C-4.66 8 -5.32 8 -6 8 C-5.651 4.745 -4.979 3.981 -2.438 1.75 C-1.633 1.173 -0.829 0.595 0 0 Z " fill="#022861" transform="translate(686,506)"/>
<path d="M0 0 C1.32 0.66 2.64 1.32 4 2 C4 2.66 4 3.32 4 4 C0.37 4 -3.26 4 -7 4 C-7 3.67 -7 3.34 -7 3 C-5.546 2.814 -5.546 2.814 -4.062 2.625 C-2.547 2.316 -2.547 2.316 -1 2 C-0.67 1.34 -0.34 0.68 0 0 Z " fill="#6EB8E9" transform="translate(558,340)"/>
<path d="M0 0 C0.66 0 1.32 0 2 0 C1.835 0.928 1.67 1.856 1.5 2.812 C0.923 5.956 0.923 5.956 1 9 C-0.32 8.01 -1.64 7.02 -3 6 C-1.125 1.125 -1.125 1.125 0 0 Z " fill="#151D4F" transform="translate(726,623)"/>
<path d="M0 0 C0.66 0.33 1.32 0.66 2 1 C1.385 7.523 1.385 7.523 -0.562 9.938 C-1.037 10.288 -1.511 10.639 -2 11 C-1.856 10.299 -1.711 9.597 -1.562 8.875 C-0.985 5.924 -0.483 2.967 0 0 Z " fill="#071A54" transform="translate(779,587)"/>
<path d="M0 0 C0.66 0.99 1.32 1.98 2 3 C1.539 5.043 1.539 5.043 0.625 7.188 C0.329 7.903 0.032 8.618 -0.273 9.355 C-0.513 9.898 -0.753 10.441 -1 11 C-1.66 11 -2.32 11 -3 11 C-2.01 7.37 -1.02 3.74 0 0 Z " fill="#223D6E" transform="translate(776,543)"/>
<path d="M0 0 C0.99 0.66 1.98 1.32 3 2 C1.711 2.672 0.419 3.337 -0.875 4 C-1.594 4.371 -2.314 4.742 -3.055 5.125 C-5 6 -5 6 -7 6 C-7 5.34 -7 4.68 -7 4 C-5.68 4 -4.36 4 -3 4 C-3 3.34 -3 2.68 -3 2 C-2.01 1.34 -1.02 0.68 0 0 Z " fill="#D0F1FB" transform="translate(285,544)"/>
<path d="M0 0 C2.97 0.495 2.97 0.495 6 1 C6.33 2.65 6.66 4.3 7 6 C6.34 6 5.68 6 5 6 C5 5.34 5 4.68 5 4 C3.35 3.67 1.7 3.34 0 3 C0 2.01 0 1.02 0 0 Z " fill="#2B8CC3" transform="translate(274,524)"/>
<path d="M0 0 C0.186 0.959 0.186 0.959 0.375 1.938 C0.684 2.958 0.684 2.958 1 4 C1.66 4.33 2.32 4.66 3 5 C0.525 6.485 0.525 6.485 -2 8 C-1.125 1.125 -1.125 1.125 0 0 Z " fill="#1B2B54" transform="translate(562,470)"/>
<path d="M0 0 C2.062 0.438 2.062 0.438 4 1 C4 1.66 4 2.32 4 3 C2.374 4.382 0.707 5.719 -1 7 C-1.043 5 -1.041 3 -1 1 C-0.67 0.67 -0.34 0.34 0 0 Z " fill="#09134B" transform="translate(731,613)"/>
<path d="M0 0 C0.99 0.495 0.99 0.495 2 1 C2.594 3.649 2.742 6.292 3 9 C2.01 8.34 1.02 7.68 0 7 C-0.188 3.375 -0.188 3.375 0 0 Z " fill="#0E245C" transform="translate(760,569)"/>
<path d="M0 0 C0.66 0.99 1.32 1.98 2 3 C1 4 1 4 -2.16 4.098 C-4.092 4.08 -4.092 4.08 -6.062 4.062 C-7.353 4.053 -8.643 4.044 -9.973 4.035 C-10.972 4.024 -11.971 4.012 -13 4 C-13 3.67 -13 3.34 -13 3 C-12.145 2.951 -11.291 2.902 -10.41 2.852 C-9.305 2.777 -8.201 2.702 -7.062 2.625 C-5.409 2.521 -5.409 2.521 -3.723 2.414 C-2.375 2.209 -2.375 2.209 -1 2 C-0.67 1.34 -0.34 0.68 0 0 Z " fill="#65B2E4" transform="translate(251,548)"/>
<path d="M0 0 C1.134 0.021 2.269 0.041 3.438 0.062 C1.042 2.962 -0.875 3.564 -4.562 4.062 C-4.562 -0.283 -4.438 0.078 0 0 Z " fill="#5498C0" transform="translate(261.5625,544.9375)"/>
<path d="M0 0 C0.33 0 0.66 0 1 0 C1.66 2.31 2.32 4.62 3 7 C2.01 7 1.02 7 0 7 C-0.66 6.34 -1.32 5.68 -2 5 C-1.464 1.464 -1.464 1.464 0 0 Z " fill="#152A59" transform="translate(535,446)"/>
<path d="M0 0 C2.96 4.44 2.96 4.44 4 7 C3.67 7.99 3.34 8.98 3 10 C2.34 9.67 1.68 9.34 1 9 C0.586 6.934 0.586 6.934 0.375 4.438 C0.3 3.611 0.225 2.785 0.148 1.934 C0.099 1.296 0.05 0.657 0 0 Z " fill="#081C57" transform="translate(418,574)"/>
<path d="M0 0 C1.25 2.5 0.867 3.339 0.188 6 C0.016 6.701 -0.155 7.403 -0.332 8.125 C-1 10 -1 10 -3 12 C-3.432 7.248 -1.985 4.218 0 0 Z " fill="#04225B" transform="translate(792,557)"/>
<path d="M0 0 C5.75 3.625 5.75 3.625 8 7 C7.01 7 6.02 7 5 7 C4.732 6.361 4.464 5.721 4.188 5.062 C3.113 2.669 3.113 2.669 0 2 C0 1.34 0 0.68 0 0 Z " fill="#1A2B5E" transform="translate(479,537)"/>
<path d="M0 0 C0.99 0 1.98 0 3 0 C1.473 3.436 -0.599 6.119 -3 9 C-2.301 5.853 -1.239 2.974 0 0 Z " fill="#0C2A57" transform="translate(724,507)"/>
<path d="M0 0 C2.31 0.33 4.62 0.66 7 1 C7 1.99 7 2.98 7 4 C4.69 3.67 2.38 3.34 0 3 C0 2.01 0 1.02 0 0 Z " fill="#092654" transform="translate(530,464)"/>
<path d="M0 0 C1.32 0.99 2.64 1.98 4 3 C3.67 3.66 3.34 4.32 3 5 C2.34 4.67 1.68 4.34 1 4 C1 6.31 1 8.62 1 11 C0.67 11 0.34 11 0 11 C0 7.37 0 3.74 0 0 Z " fill="#7BD3FB" transform="translate(543,324)"/>
<path d="M0 0 C0.66 0 1.32 0 2 0 C2.33 2.31 2.66 4.62 3 7 C2.01 7 1.02 7 0 7 C0 4.69 0 2.38 0 0 Z " fill="#345076" transform="translate(525,649)"/>
<path d="M0 0 C3.736 1.245 4.188 2.634 6 6 C3.133 5.427 2.139 5.139 0 3 C0 2.01 0 1.02 0 0 Z " fill="#041650" transform="translate(440,579)"/>
<path d="M0 0 C0.66 0.33 1.32 0.66 2 1 C1.34 3.64 0.68 6.28 0 9 C-0.66 8.67 -1.32 8.34 -2 8 C-1.125 2.25 -1.125 2.25 0 0 Z " fill="#1D3765" transform="translate(507,542)"/>
<path d="M0 0 C0.66 0.33 1.32 0.66 2 1 C-0.25 3.062 -0.25 3.062 -3 5 C-5.312 4.75 -5.312 4.75 -7 4 C-1.727 0.777 -1.727 0.777 0 0 Z " fill="#DBF7FD" transform="translate(282,536)"/>
<path d="M0 0 C1.32 0.33 2.64 0.66 4 1 C3.67 2.98 3.34 4.96 3 7 C2.34 6.67 1.68 6.34 1 6 C0.375 2.938 0.375 2.938 0 0 Z " fill="#082953" transform="translate(725,533)"/>
<path d="M0 0 C3.688 0.875 3.688 0.875 7 2 C6.01 2.66 5.02 3.32 4 4 C0.312 3.125 0.312 3.125 -3 2 C-2.01 1.34 -1.02 0.68 0 0 Z " fill="#0D2D62" transform="translate(468,532)"/>
<path d="M0 0 C2 2 2 2 2 6 C1.34 6 0.68 6 0 6 C-0.33 6.66 -0.66 7.32 -1 8 C-1.042 5.667 -1.041 3.333 -1 1 C-0.67 0.67 -0.34 0.34 0 0 Z " fill="#092552" transform="translate(567,451)"/>
<path d="M0 0 C1.173 0.951 2.338 1.911 3.5 2.875 C4.475 3.676 4.475 3.676 5.469 4.492 C5.974 4.99 6.479 5.487 7 6 C7 6.66 7 7.32 7 8 C3.644 6.611 1.927 5.083 0 2 C0 1.34 0 0.68 0 0 Z " fill="#011D52" transform="translate(550,318)"/>
<path d="M0 0 C2.25 -0.312 2.25 -0.312 5 0 C7.312 2.5 7.312 2.5 9 5 C8.01 5 7.02 5 6 5 C5.753 4.361 5.505 3.721 5.25 3.062 C4.184 0.813 4.184 0.813 1.875 0.25 C0.947 0.126 0.947 0.126 0 0 Z " fill="#173362" transform="translate(537,308)"/>
</svg>
